<svg width="218" height="189" viewBox="0 0 218 189" fill="none" xmlns="http://www.w3.org/2000/svg">
<g id="Group 8566">
<g id="Group 867">
<path id="Ellipse 744" d="M97.3154 1.95108C97.8542 1.95108 98.2909 1.51431 98.2909 0.975538C98.2909 0.436763 97.8542 0 97.3154 0C96.7766 0 96.3398 0.436763 96.3398 0.975538C96.3398 1.51431 96.7766 1.95108 97.3154 1.95108Z" fill="#EF4824"/>
<path id="Ellipse 745" d="M109.069 1.95108C109.608 1.95108 110.045 1.51431 110.045 0.975538C110.045 0.436763 109.608 0 109.069 0C108.531 0 108.094 0.436763 108.094 0.975538C108.094 1.51431 108.531 1.95108 109.069 1.95108Z" fill="#EF4824"/>
<path id="Ellipse 746" d="M120.823 1.95108C121.362 1.95108 121.799 1.51431 121.799 0.975538C121.799 0.436763 121.362 0 120.823 0C120.284 0 119.848 0.436763 119.848 0.975538C119.848 1.51431 120.284 1.95108 120.823 1.95108Z" fill="#EF4824"/>
<path id="Ellipse 747" d="M132.577 1.95108C133.116 1.95108 133.553 1.51431 133.553 0.975538C133.553 0.436763 133.116 0 132.577 0C132.038 0 131.602 0.436763 131.602 0.975538C131.602 1.51431 132.038 1.95108 132.577 1.95108Z" fill="#EF4824"/>
<path id="Ellipse 1127" d="M1.72163 1.95108C2.26041 1.95108 2.69717 1.51431 2.69717 0.975538C2.69717 0.436763 2.26041 0 1.72163 0C1.18286 0 0.746094 0.436763 0.746094 0.975538C0.746094 1.51431 1.18286 1.95108 1.72163 1.95108Z" fill="#EF4824"/>
<path id="Path 6105" d="M146.088 0.975534C146.088 1.16848 146.031 1.35708 145.923 1.51751C145.816 1.67794 145.664 1.80298 145.486 1.87682C145.307 1.95066 145.111 1.96999 144.922 1.93235C144.733 1.8947 144.559 1.80179 144.422 1.66536C144.286 1.52893 144.193 1.35509 144.155 1.16585C144.118 0.976618 144.137 0.780469 144.211 0.602212C144.285 0.423956 144.41 0.271616 144.57 0.164422C144.731 0.0572288 144.919 0 145.112 0C145.371 0 145.619 0.102782 145.802 0.28573C145.985 0.468679 146.088 0.716805 146.088 0.975534Z" fill="#EF4824"/>
<path id="Path 19272" d="M14.4511 0.975534C14.4511 1.16848 14.3939 1.35708 14.2867 1.51751C14.1795 1.67794 14.0271 1.80298 13.8489 1.87682C13.6706 1.95066 13.4745 1.96999 13.2852 1.93235C13.096 1.8947 12.9222 1.80179 12.7857 1.66536C12.6493 1.52893 12.5564 1.35509 12.5187 1.16585C12.4811 0.976618 12.5004 0.780469 12.5743 0.602212C12.6481 0.423956 12.7731 0.271616 12.9336 0.164422C13.094 0.0572288 13.2826 0 13.4755 0C13.7343 0 13.9824 0.102782 14.1653 0.28573C14.3483 0.468679 14.4511 0.716805 14.4511 0.975534Z" fill="#EF4824"/>
<path id="Ellipse 748" d="M156.866 1.95108C157.405 1.95108 157.842 1.51431 157.842 0.975538C157.842 0.436763 157.405 0 156.866 0C156.327 0 155.891 0.436763 155.891 0.975538C155.891 1.51431 156.327 1.95108 156.866 1.95108Z" fill="#EF4824"/>
<path id="Ellipse 1128" d="M25.2294 1.95108C25.7682 1.95108 26.205 1.51431 26.205 0.975538C26.205 0.436763 25.7682 0 25.2294 0C24.6907 0 24.2539 0.436763 24.2539 0.975538C24.2539 1.51431 24.6907 1.95108 25.2294 1.95108Z" fill="#EF4824"/>
<path id="Ellipse 749" d="M168.62 1.95108C169.159 1.95108 169.596 1.51431 169.596 0.975538C169.596 0.436763 169.159 0 168.62 0C168.081 0 167.645 0.436763 167.645 0.975538C167.645 1.51431 168.081 1.95108 168.62 1.95108Z" fill="#EF4824"/>
<path id="Ellipse 1129" d="M37.7685 1.95108C38.3073 1.95108 38.744 1.51431 38.744 0.975538C38.744 0.436763 38.3073 0 37.7685 0C37.2297 0 36.793 0.436763 36.793 0.975538C36.793 1.51431 37.2297 1.95108 37.7685 1.95108Z" fill="#EF4824"/>
<path id="Ellipse 750" d="M180.374 1.95108C180.913 1.95108 181.35 1.51431 181.35 0.975538C181.35 0.436763 180.913 0 180.374 0C179.835 0 179.398 0.436763 179.398 0.975538C179.398 1.51431 179.835 1.95108 180.374 1.95108Z" fill="#EF4824"/>
<path id="Ellipse 1130" d="M49.5185 1.95108C50.0573 1.95108 50.494 1.51431 50.494 0.975538C50.494 0.436763 50.0573 0 49.5185 0C48.9797 0 48.543 0.436763 48.543 0.975538C48.543 1.51431 48.9797 1.95108 49.5185 1.95108Z" fill="#EF4824"/>
<path id="Ellipse 751" d="M192.913 1.95108C193.452 1.95108 193.889 1.51431 193.889 0.975538C193.889 0.436763 193.452 0 192.913 0C192.374 0 191.938 0.436763 191.938 0.975538C191.938 1.51431 192.374 1.95108 192.913 1.95108Z" fill="#EF4824"/>
<path id="Ellipse 1131" d="M61.2724 1.95108C61.8112 1.95108 62.248 1.51431 62.248 0.975538C62.248 0.436763 61.8112 0 61.2724 0C60.7336 0 60.2969 0.436763 60.2969 0.975538C60.2969 1.51431 60.7336 1.95108 61.2724 1.95108Z" fill="#EF4824"/>
<path id="Ellipse 752" d="M204.667 1.95108C205.206 1.95108 205.642 1.51431 205.642 0.975538C205.642 0.436763 205.206 0 204.667 0C204.128 0 203.691 0.436763 203.691 0.975538C203.691 1.51431 204.128 1.95108 204.667 1.95108Z" fill="#EF4824"/>
<path id="Ellipse 1132" d="M73.0263 1.95108C73.5651 1.95108 74.0019 1.51431 74.0019 0.975538C74.0019 0.436763 73.5651 0 73.0263 0C72.4875 0 72.0508 0.436763 72.0508 0.975538C72.0508 1.51431 72.4875 1.95108 73.0263 1.95108Z" fill="#EF4824"/>
<path id="Ellipse 753" d="M216.421 1.95108C216.96 1.95108 217.396 1.51431 217.396 0.975538C217.396 0.436763 216.96 0 216.421 0C215.882 0 215.445 0.436763 215.445 0.975538C215.445 1.51431 215.882 1.95108 216.421 1.95108Z" fill="#EF4824"/>
<path id="Ellipse 1133" d="M85.5615 1.95108C86.1003 1.95108 86.537 1.51431 86.537 0.975538C86.537 0.436763 86.1003 0 85.5615 0C85.0227 0 84.5859 0.436763 84.5859 0.975538C84.5859 1.51431 85.0227 1.95108 85.5615 1.95108Z" fill="#EF4824"/>
</g>
<g id="Group 867_2">
<path id="Ellipse 744_2" d="M97.3154 15.2753C97.8542 15.2753 98.2909 14.8385 98.2909 14.2998C98.2909 13.761 97.8542 13.3242 97.3154 13.3242C96.7766 13.3242 96.3398 13.761 96.3398 14.2998C96.3398 14.8385 96.7766 15.2753 97.3154 15.2753Z" fill="#EF4824"/>
<path id="Ellipse 745_2" d="M109.069 15.2753C109.608 15.2753 110.045 14.8385 110.045 14.2998C110.045 13.761 109.608 13.3242 109.069 13.3242C108.531 13.3242 108.094 13.761 108.094 14.2998C108.094 14.8385 108.531 15.2753 109.069 15.2753Z" fill="#EF4824"/>
<path id="Ellipse 746_2" d="M120.823 15.2753C121.362 15.2753 121.799 14.8385 121.799 14.2998C121.799 13.761 121.362 13.3242 120.823 13.3242C120.284 13.3242 119.848 13.761 119.848 14.2998C119.848 14.8385 120.284 15.2753 120.823 15.2753Z" fill="#EF4824"/>
<path id="Ellipse 747_2" d="M132.577 15.2753C133.116 15.2753 133.553 14.8385 133.553 14.2998C133.553 13.761 133.116 13.3242 132.577 13.3242C132.038 13.3242 131.602 13.761 131.602 14.2998C131.602 14.8385 132.038 15.2753 132.577 15.2753Z" fill="#EF4824"/>
<path id="Ellipse 1127_2" d="M1.72163 15.2753C2.26041 15.2753 2.69717 14.8385 2.69717 14.2998C2.69717 13.761 2.26041 13.3242 1.72163 13.3242C1.18286 13.3242 0.746094 13.761 0.746094 14.2998C0.746094 14.8385 1.18286 15.2753 1.72163 15.2753Z" fill="#EF4824"/>
<path id="Path 6105_2" d="M146.088 14.2998C146.088 14.4927 146.031 14.6813 145.923 14.8417C145.816 15.0022 145.664 15.1272 145.486 15.201C145.307 15.2749 145.111 15.2942 144.922 15.2566C144.733 15.2189 144.559 15.126 144.422 14.9896C144.286 14.8531 144.193 14.6793 144.155 14.4901C144.118 14.3008 144.137 14.1047 144.211 13.9264C144.285 13.7482 144.41 13.5958 144.57 13.4886C144.731 13.3814 144.919 13.3242 145.112 13.3242C145.371 13.3242 145.619 13.427 145.802 13.6099C145.985 13.7929 146.088 14.041 146.088 14.2998Z" fill="#EF4824"/>
<path id="Path 19272_2" d="M14.4511 14.2998C14.4511 14.4927 14.3939 14.6813 14.2867 14.8417C14.1795 15.0022 14.0271 15.1272 13.8489 15.201C13.6706 15.2749 13.4745 15.2942 13.2852 15.2566C13.096 15.2189 12.9222 15.126 12.7857 14.9896C12.6493 14.8531 12.5564 14.6793 12.5187 14.4901C12.4811 14.3008 12.5004 14.1047 12.5743 13.9264C12.6481 13.7482 12.7731 13.5958 12.9336 13.4886C13.094 13.3814 13.2826 13.3242 13.4755 13.3242C13.7343 13.3242 13.9824 13.427 14.1653 13.6099C14.3483 13.7929 14.4511 14.041 14.4511 14.2998Z" fill="#EF4824"/>
<path id="Ellipse 748_2" d="M156.866 15.2753C157.405 15.2753 157.842 14.8385 157.842 14.2998C157.842 13.761 157.405 13.3242 156.866 13.3242C156.327 13.3242 155.891 13.761 155.891 14.2998C155.891 14.8385 156.327 15.2753 156.866 15.2753Z" fill="#EF4824"/>
<path id="Ellipse 1128_2" d="M25.2294 15.2753C25.7682 15.2753 26.205 14.8385 26.205 14.2998C26.205 13.761 25.7682 13.3242 25.2294 13.3242C24.6907 13.3242 24.2539 13.761 24.2539 14.2998C24.2539 14.8385 24.6907 15.2753 25.2294 15.2753Z" fill="#EF4824"/>
<path id="Ellipse 749_2" d="M168.62 15.2753C169.159 15.2753 169.596 14.8385 169.596 14.2998C169.596 13.761 169.159 13.3242 168.62 13.3242C168.081 13.3242 167.645 13.761 167.645 14.2998C167.645 14.8385 168.081 15.2753 168.62 15.2753Z" fill="#EF4824"/>
<path id="Ellipse 1129_2" d="M37.7685 15.2753C38.3073 15.2753 38.744 14.8385 38.744 14.2998C38.744 13.761 38.3073 13.3242 37.7685 13.3242C37.2297 13.3242 36.793 13.761 36.793 14.2998C36.793 14.8385 37.2297 15.2753 37.7685 15.2753Z" fill="#EF4824"/>
<path id="Ellipse 750_2" d="M180.374 15.2753C180.913 15.2753 181.35 14.8385 181.35 14.2998C181.35 13.761 180.913 13.3242 180.374 13.3242C179.835 13.3242 179.398 13.761 179.398 14.2998C179.398 14.8385 179.835 15.2753 180.374 15.2753Z" fill="#EF4824"/>
<path id="Ellipse 1130_2" d="M49.5185 15.2753C50.0573 15.2753 50.494 14.8385 50.494 14.2998C50.494 13.761 50.0573 13.3242 49.5185 13.3242C48.9797 13.3242 48.543 13.761 48.543 14.2998C48.543 14.8385 48.9797 15.2753 49.5185 15.2753Z" fill="#EF4824"/>
<path id="Ellipse 751_2" d="M192.913 15.2753C193.452 15.2753 193.889 14.8385 193.889 14.2998C193.889 13.761 193.452 13.3242 192.913 13.3242C192.374 13.3242 191.938 13.761 191.938 14.2998C191.938 14.8385 192.374 15.2753 192.913 15.2753Z" fill="#EF4824"/>
<path id="Ellipse 1131_2" d="M61.2724 15.2753C61.8112 15.2753 62.248 14.8385 62.248 14.2998C62.248 13.761 61.8112 13.3242 61.2724 13.3242C60.7336 13.3242 60.2969 13.761 60.2969 14.2998C60.2969 14.8385 60.7336 15.2753 61.2724 15.2753Z" fill="#EF4824"/>
<path id="Ellipse 752_2" d="M204.667 15.2753C205.206 15.2753 205.642 14.8385 205.642 14.2998C205.642 13.761 205.206 13.3242 204.667 13.3242C204.128 13.3242 203.691 13.761 203.691 14.2998C203.691 14.8385 204.128 15.2753 204.667 15.2753Z" fill="#EF4824"/>
<path id="Ellipse 1132_2" d="M73.0263 15.2753C73.5651 15.2753 74.0019 14.8385 74.0019 14.2998C74.0019 13.761 73.5651 13.3242 73.0263 13.3242C72.4875 13.3242 72.0508 13.761 72.0508 14.2998C72.0508 14.8385 72.4875 15.2753 73.0263 15.2753Z" fill="#EF4824"/>
<path id="Ellipse 753_2" d="M216.421 15.2753C216.96 15.2753 217.396 14.8385 217.396 14.2998C217.396 13.761 216.96 13.3242 216.421 13.3242C215.882 13.3242 215.445 13.761 215.445 14.2998C215.445 14.8385 215.882 15.2753 216.421 15.2753Z" fill="#EF4824"/>
<path id="Ellipse 1133_2" d="M85.5615 15.2753C86.1003 15.2753 86.537 14.8385 86.537 14.2998C86.537 13.761 86.1003 13.3242 85.5615 13.3242C85.0227 13.3242 84.5859 13.761 84.5859 14.2998C84.5859 14.8385 85.0227 15.2753 85.5615 15.2753Z" fill="#EF4824"/>
</g>
<g id="Group 867_3">
<path id="Ellipse 744_3" d="M97.3154 28.5956C97.8542 28.5956 98.2909 28.1588 98.2909 27.6201C98.2909 27.0813 97.8542 26.6445 97.3154 26.6445C96.7766 26.6445 96.3398 27.0813 96.3398 27.6201C96.3398 28.1588 96.7766 28.5956 97.3154 28.5956Z" fill="#EF4824"/>
<path id="Ellipse 745_3" d="M109.069 28.5956C109.608 28.5956 110.045 28.1588 110.045 27.6201C110.045 27.0813 109.608 26.6445 109.069 26.6445C108.531 26.6445 108.094 27.0813 108.094 27.6201C108.094 28.1588 108.531 28.5956 109.069 28.5956Z" fill="#EF4824"/>
<path id="Ellipse 746_3" d="M120.823 28.5956C121.362 28.5956 121.799 28.1588 121.799 27.6201C121.799 27.0813 121.362 26.6445 120.823 26.6445C120.284 26.6445 119.848 27.0813 119.848 27.6201C119.848 28.1588 120.284 28.5956 120.823 28.5956Z" fill="#EF4824"/>
<path id="Ellipse 747_3" d="M132.577 28.5956C133.116 28.5956 133.553 28.1588 133.553 27.6201C133.553 27.0813 133.116 26.6445 132.577 26.6445C132.038 26.6445 131.602 27.0813 131.602 27.6201C131.602 28.1588 132.038 28.5956 132.577 28.5956Z" fill="#EF4824"/>
<path id="Ellipse 1127_3" d="M1.72163 28.5956C2.26041 28.5956 2.69717 28.1588 2.69717 27.6201C2.69717 27.0813 2.26041 26.6445 1.72163 26.6445C1.18286 26.6445 0.746094 27.0813 0.746094 27.6201C0.746094 28.1588 1.18286 28.5956 1.72163 28.5956Z" fill="#EF4824"/>
<path id="Path 6105_3" d="M146.088 27.6201C146.088 27.813 146.031 28.0016 145.923 28.162C145.816 28.3225 145.664 28.4475 145.486 28.5214C145.307 28.5952 145.111 28.6145 144.922 28.5769C144.733 28.5392 144.559 28.4463 144.422 28.3099C144.286 28.1735 144.193 27.9996 144.155 27.8104C144.118 27.6211 144.137 27.425 144.211 27.2467C144.285 27.0685 144.41 26.9161 144.57 26.809C144.731 26.7018 144.919 26.6445 145.112 26.6445C145.371 26.6445 145.619 26.7473 145.802 26.9303C145.985 27.1132 146.088 27.3613 146.088 27.6201Z" fill="#EF4824"/>
<path id="Path 19272_3" d="M14.4511 27.6201C14.4511 27.813 14.3939 28.0016 14.2867 28.162C14.1795 28.3225 14.0271 28.4475 13.8489 28.5214C13.6706 28.5952 13.4745 28.6145 13.2852 28.5769C13.096 28.5392 12.9222 28.4463 12.7857 28.3099C12.6493 28.1735 12.5564 27.9996 12.5187 27.8104C12.4811 27.6211 12.5004 27.425 12.5743 27.2467C12.6481 27.0685 12.7731 26.9161 12.9336 26.809C13.094 26.7018 13.2826 26.6445 13.4755 26.6445C13.7343 26.6445 13.9824 26.7473 14.1653 26.9303C14.3483 27.1132 14.4511 27.3613 14.4511 27.6201Z" fill="#EF4824"/>
<path id="Ellipse 748_3" d="M156.866 28.5956C157.405 28.5956 157.842 28.1588 157.842 27.6201C157.842 27.0813 157.405 26.6445 156.866 26.6445C156.327 26.6445 155.891 27.0813 155.891 27.6201C155.891 28.1588 156.327 28.5956 156.866 28.5956Z" fill="#EF4824"/>
<path id="Ellipse 1128_3" d="M25.2294 28.5956C25.7682 28.5956 26.205 28.1588 26.205 27.6201C26.205 27.0813 25.7682 26.6445 25.2294 26.6445C24.6907 26.6445 24.2539 27.0813 24.2539 27.6201C24.2539 28.1588 24.6907 28.5956 25.2294 28.5956Z" fill="#EF4824"/>
<path id="Ellipse 749_3" d="M168.62 28.5956C169.159 28.5956 169.596 28.1588 169.596 27.6201C169.596 27.0813 169.159 26.6445 168.62 26.6445C168.081 26.6445 167.645 27.0813 167.645 27.6201C167.645 28.1588 168.081 28.5956 168.62 28.5956Z" fill="#EF4824"/>
<path id="Ellipse 1129_3" d="M37.7685 28.5956C38.3073 28.5956 38.744 28.1588 38.744 27.6201C38.744 27.0813 38.3073 26.6445 37.7685 26.6445C37.2297 26.6445 36.793 27.0813 36.793 27.6201C36.793 28.1588 37.2297 28.5956 37.7685 28.5956Z" fill="#EF4824"/>
<path id="Ellipse 750_3" d="M180.374 28.5956C180.913 28.5956 181.35 28.1588 181.35 27.6201C181.35 27.0813 180.913 26.6445 180.374 26.6445C179.835 26.6445 179.398 27.0813 179.398 27.6201C179.398 28.1588 179.835 28.5956 180.374 28.5956Z" fill="#EF4824"/>
<path id="Ellipse 1130_3" d="M49.5185 28.5956C50.0573 28.5956 50.494 28.1588 50.494 27.6201C50.494 27.0813 50.0573 26.6445 49.5185 26.6445C48.9797 26.6445 48.543 27.0813 48.543 27.6201C48.543 28.1588 48.9797 28.5956 49.5185 28.5956Z" fill="#EF4824"/>
<path id="Ellipse 751_3" d="M192.913 28.5956C193.452 28.5956 193.889 28.1588 193.889 27.6201C193.889 27.0813 193.452 26.6445 192.913 26.6445C192.374 26.6445 191.938 27.0813 191.938 27.6201C191.938 28.1588 192.374 28.5956 192.913 28.5956Z" fill="#EF4824"/>
<path id="Ellipse 1131_3" d="M61.2724 28.5956C61.8112 28.5956 62.248 28.1588 62.248 27.6201C62.248 27.0813 61.8112 26.6445 61.2724 26.6445C60.7336 26.6445 60.2969 27.0813 60.2969 27.6201C60.2969 28.1588 60.7336 28.5956 61.2724 28.5956Z" fill="#EF4824"/>
<path id="Ellipse 752_3" d="M204.667 28.5956C205.206 28.5956 205.642 28.1588 205.642 27.6201C205.642 27.0813 205.206 26.6445 204.667 26.6445C204.128 26.6445 203.691 27.0813 203.691 27.6201C203.691 28.1588 204.128 28.5956 204.667 28.5956Z" fill="#EF4824"/>
<path id="Ellipse 1132_3" d="M73.0263 28.5956C73.5651 28.5956 74.0019 28.1588 74.0019 27.6201C74.0019 27.0813 73.5651 26.6445 73.0263 26.6445C72.4875 26.6445 72.0508 27.0813 72.0508 27.6201C72.0508 28.1588 72.4875 28.5956 73.0263 28.5956Z" fill="#EF4824"/>
<path id="Ellipse 753_3" d="M216.421 28.5956C216.96 28.5956 217.396 28.1588 217.396 27.6201C217.396 27.0813 216.96 26.6445 216.421 26.6445C215.882 26.6445 215.445 27.0813 215.445 27.6201C215.445 28.1588 215.882 28.5956 216.421 28.5956Z" fill="#EF4824"/>
<path id="Ellipse 1133_3" d="M85.5615 28.5956C86.1003 28.5956 86.537 28.1588 86.537 27.6201C86.537 27.0813 86.1003 26.6445 85.5615 26.6445C85.0227 26.6445 84.5859 27.0813 84.5859 27.6201C84.5859 28.1588 85.0227 28.5956 85.5615 28.5956Z" fill="#EF4824"/>
</g>
<g id="Group 867_4">
<path id="Ellipse 744_4" d="M97.3154 41.912C97.8542 41.912 98.2909 41.4753 98.2909 40.9365C98.2909 40.3977 97.8542 39.9609 97.3154 39.9609C96.7766 39.9609 96.3398 40.3977 96.3398 40.9365C96.3398 41.4753 96.7766 41.912 97.3154 41.912Z" fill="#EF4824"/>
<path id="Ellipse 745_4" d="M109.069 41.912C109.608 41.912 110.045 41.4753 110.045 40.9365C110.045 40.3977 109.608 39.9609 109.069 39.9609C108.531 39.9609 108.094 40.3977 108.094 40.9365C108.094 41.4753 108.531 41.912 109.069 41.912Z" fill="#EF4824"/>
<path id="Ellipse 746_4" d="M120.823 41.912C121.362 41.912 121.799 41.4753 121.799 40.9365C121.799 40.3977 121.362 39.9609 120.823 39.9609C120.284 39.9609 119.848 40.3977 119.848 40.9365C119.848 41.4753 120.284 41.912 120.823 41.912Z" fill="#EF4824"/>
<path id="Ellipse 747_4" d="M132.577 41.912C133.116 41.912 133.553 41.4753 133.553 40.9365C133.553 40.3977 133.116 39.9609 132.577 39.9609C132.038 39.9609 131.602 40.3977 131.602 40.9365C131.602 41.4753 132.038 41.912 132.577 41.912Z" fill="#EF4824"/>
<path id="Ellipse 1127_4" d="M1.72163 41.912C2.26041 41.912 2.69717 41.4753 2.69717 40.9365C2.69717 40.3977 2.26041 39.9609 1.72163 39.9609C1.18286 39.9609 0.746094 40.3977 0.746094 40.9365C0.746094 41.4753 1.18286 41.912 1.72163 41.912Z" fill="#EF4824"/>
<path id="Path 6105_4" d="M146.088 40.9365C146.088 41.1294 146.031 41.318 145.923 41.4784C145.816 41.6389 145.664 41.7639 145.486 41.8378C145.307 41.9116 145.111 41.9309 144.922 41.8933C144.733 41.8556 144.559 41.7627 144.422 41.6263C144.286 41.4899 144.193 41.316 144.155 41.1268C144.118 40.9376 144.137 40.7414 144.211 40.5631C144.285 40.3849 144.41 40.2326 144.57 40.1254C144.731 40.0182 144.919 39.9609 145.112 39.9609C145.371 39.9609 145.619 40.0637 145.802 40.2467C145.985 40.4296 146.088 40.6777 146.088 40.9365Z" fill="#EF4824"/>
<path id="Path 19272_4" d="M14.4511 40.9365C14.4511 41.1294 14.3939 41.318 14.2867 41.4784C14.1795 41.6389 14.0271 41.7639 13.8489 41.8378C13.6706 41.9116 13.4745 41.9309 13.2852 41.8933C13.096 41.8556 12.9222 41.7627 12.7857 41.6263C12.6493 41.4899 12.5564 41.316 12.5187 41.1268C12.4811 40.9376 12.5004 40.7414 12.5743 40.5631C12.6481 40.3849 12.7731 40.2326 12.9336 40.1254C13.094 40.0182 13.2826 39.9609 13.4755 39.9609C13.7343 39.9609 13.9824 40.0637 14.1653 40.2467C14.3483 40.4296 14.4511 40.6777 14.4511 40.9365Z" fill="#EF4824"/>
<path id="Ellipse 748_4" d="M156.866 41.912C157.405 41.912 157.842 41.4753 157.842 40.9365C157.842 40.3977 157.405 39.9609 156.866 39.9609C156.327 39.9609 155.891 40.3977 155.891 40.9365C155.891 41.4753 156.327 41.912 156.866 41.912Z" fill="#EF4824"/>
<path id="Ellipse 1128_4" d="M25.2294 41.912C25.7682 41.912 26.205 41.4753 26.205 40.9365C26.205 40.3977 25.7682 39.9609 25.2294 39.9609C24.6907 39.9609 24.2539 40.3977 24.2539 40.9365C24.2539 41.4753 24.6907 41.912 25.2294 41.912Z" fill="#EF4824"/>
<path id="Ellipse 749_4" d="M168.62 41.912C169.159 41.912 169.596 41.4753 169.596 40.9365C169.596 40.3977 169.159 39.9609 168.62 39.9609C168.081 39.9609 167.645 40.3977 167.645 40.9365C167.645 41.4753 168.081 41.912 168.62 41.912Z" fill="#EF4824"/>
<path id="Ellipse 1129_4" d="M37.7685 41.912C38.3073 41.912 38.744 41.4753 38.744 40.9365C38.744 40.3977 38.3073 39.9609 37.7685 39.9609C37.2297 39.9609 36.793 40.3977 36.793 40.9365C36.793 41.4753 37.2297 41.912 37.7685 41.912Z" fill="#EF4824"/>
<path id="Ellipse 750_4" d="M180.374 41.912C180.913 41.912 181.35 41.4753 181.35 40.9365C181.35 40.3977 180.913 39.9609 180.374 39.9609C179.835 39.9609 179.398 40.3977 179.398 40.9365C179.398 41.4753 179.835 41.912 180.374 41.912Z" fill="#EF4824"/>
<path id="Ellipse 1130_4" d="M49.5185 41.912C50.0573 41.912 50.494 41.4753 50.494 40.9365C50.494 40.3977 50.0573 39.9609 49.5185 39.9609C48.9797 39.9609 48.543 40.3977 48.543 40.9365C48.543 41.4753 48.9797 41.912 49.5185 41.912Z" fill="#EF4824"/>
<path id="Ellipse 751_4" d="M192.913 41.912C193.452 41.912 193.889 41.4753 193.889 40.9365C193.889 40.3977 193.452 39.9609 192.913 39.9609C192.374 39.9609 191.938 40.3977 191.938 40.9365C191.938 41.4753 192.374 41.912 192.913 41.912Z" fill="#EF4824"/>
<path id="Ellipse 1131_4" d="M61.2724 41.912C61.8112 41.912 62.248 41.4753 62.248 40.9365C62.248 40.3977 61.8112 39.9609 61.2724 39.9609C60.7336 39.9609 60.2969 40.3977 60.2969 40.9365C60.2969 41.4753 60.7336 41.912 61.2724 41.912Z" fill="#EF4824"/>
<path id="Ellipse 752_4" d="M204.667 41.912C205.206 41.912 205.642 41.4753 205.642 40.9365C205.642 40.3977 205.206 39.9609 204.667 39.9609C204.128 39.9609 203.691 40.3977 203.691 40.9365C203.691 41.4753 204.128 41.912 204.667 41.912Z" fill="#EF4824"/>
<path id="Ellipse 1132_4" d="M73.0263 41.912C73.5651 41.912 74.0019 41.4753 74.0019 40.9365C74.0019 40.3977 73.5651 39.9609 73.0263 39.9609C72.4875 39.9609 72.0508 40.3977 72.0508 40.9365C72.0508 41.4753 72.4875 41.912 73.0263 41.912Z" fill="#EF4824"/>
<path id="Ellipse 753_4" d="M216.421 41.912C216.96 41.912 217.396 41.4753 217.396 40.9365C217.396 40.3977 216.96 39.9609 216.421 39.9609C215.882 39.9609 215.445 40.3977 215.445 40.9365C215.445 41.4753 215.882 41.912 216.421 41.912Z" fill="#EF4824"/>
<path id="Ellipse 1133_4" d="M85.5615 41.912C86.1003 41.912 86.537 41.4753 86.537 40.9365C86.537 40.3977 86.1003 39.9609 85.5615 39.9609C85.0227 39.9609 84.5859 40.3977 84.5859 40.9365C84.5859 41.4753 85.0227 41.912 85.5615 41.912Z" fill="#EF4824"/>
</g>
<g id="Group 867_5">
<path id="Ellipse 744_5" d="M97.3154 55.2362C97.8542 55.2362 98.2909 54.7995 98.2909 54.2607C98.2909 53.7219 97.8542 53.2852 97.3154 53.2852C96.7766 53.2852 96.3398 53.7219 96.3398 54.2607C96.3398 54.7995 96.7766 55.2362 97.3154 55.2362Z" fill="#EF4824"/>
<path id="Ellipse 745_5" d="M109.069 55.2362C109.608 55.2362 110.045 54.7995 110.045 54.2607C110.045 53.7219 109.608 53.2852 109.069 53.2852C108.531 53.2852 108.094 53.7219 108.094 54.2607C108.094 54.7995 108.531 55.2362 109.069 55.2362Z" fill="#EF4824"/>
<path id="Ellipse 746_5" d="M120.823 55.2362C121.362 55.2362 121.799 54.7995 121.799 54.2607C121.799 53.7219 121.362 53.2852 120.823 53.2852C120.284 53.2852 119.848 53.7219 119.848 54.2607C119.848 54.7995 120.284 55.2362 120.823 55.2362Z" fill="#EF4824"/>
<path id="Ellipse 747_5" d="M132.577 55.2362C133.116 55.2362 133.553 54.7995 133.553 54.2607C133.553 53.7219 133.116 53.2852 132.577 53.2852C132.038 53.2852 131.602 53.7219 131.602 54.2607C131.602 54.7995 132.038 55.2362 132.577 55.2362Z" fill="#EF4824"/>
<path id="Ellipse 1127_5" d="M1.72163 55.2362C2.26041 55.2362 2.69717 54.7995 2.69717 54.2607C2.69717 53.7219 2.26041 53.2852 1.72163 53.2852C1.18286 53.2852 0.746094 53.7219 0.746094 54.2607C0.746094 54.7995 1.18286 55.2362 1.72163 55.2362Z" fill="#EF4824"/>
<path id="Path 6105_5" d="M146.088 54.2607C146.088 54.4536 146.031 54.6422 145.923 54.8027C145.816 54.9631 145.664 55.0881 145.486 55.162C145.307 55.2358 145.111 55.2551 144.922 55.2175C144.733 55.1799 144.559 55.0869 144.422 54.9505C144.286 54.8141 144.193 54.6402 144.155 54.451C144.118 54.2618 144.137 54.0656 144.211 53.8874C144.285 53.7091 144.41 53.5568 144.57 53.4496C144.731 53.3424 144.919 53.2852 145.112 53.2852C145.371 53.2852 145.619 53.3879 145.802 53.5709C145.985 53.7538 146.088 54.002 146.088 54.2607Z" fill="#EF4824"/>
<path id="Path 19272_5" d="M14.4511 54.2607C14.4511 54.4536 14.3939 54.6422 14.2867 54.8027C14.1795 54.9631 14.0271 55.0881 13.8489 55.162C13.6706 55.2358 13.4745 55.2551 13.2852 55.2175C13.096 55.1799 12.9222 55.0869 12.7857 54.9505C12.6493 54.8141 12.5564 54.6402 12.5187 54.451C12.4811 54.2618 12.5004 54.0656 12.5743 53.8874C12.6481 53.7091 12.7731 53.5568 12.9336 53.4496C13.094 53.3424 13.2826 53.2852 13.4755 53.2852C13.7343 53.2852 13.9824 53.3879 14.1653 53.5709C14.3483 53.7538 14.4511 54.002 14.4511 54.2607Z" fill="#EF4824"/>
<path id="Ellipse 748_5" d="M156.866 55.2362C157.405 55.2362 157.842 54.7995 157.842 54.2607C157.842 53.7219 157.405 53.2852 156.866 53.2852C156.327 53.2852 155.891 53.7219 155.891 54.2607C155.891 54.7995 156.327 55.2362 156.866 55.2362Z" fill="#EF4824"/>
<path id="Ellipse 1128_5" d="M25.2294 55.2362C25.7682 55.2362 26.205 54.7995 26.205 54.2607C26.205 53.7219 25.7682 53.2852 25.2294 53.2852C24.6907 53.2852 24.2539 53.7219 24.2539 54.2607C24.2539 54.7995 24.6907 55.2362 25.2294 55.2362Z" fill="#EF4824"/>
<path id="Ellipse 749_5" d="M168.62 55.2362C169.159 55.2362 169.596 54.7995 169.596 54.2607C169.596 53.7219 169.159 53.2852 168.62 53.2852C168.081 53.2852 167.645 53.7219 167.645 54.2607C167.645 54.7995 168.081 55.2362 168.62 55.2362Z" fill="#EF4824"/>
<path id="Ellipse 1129_5" d="M37.7685 55.2362C38.3073 55.2362 38.744 54.7995 38.744 54.2607C38.744 53.7219 38.3073 53.2852 37.7685 53.2852C37.2297 53.2852 36.793 53.7219 36.793 54.2607C36.793 54.7995 37.2297 55.2362 37.7685 55.2362Z" fill="#EF4824"/>
<path id="Ellipse 750_5" d="M180.374 55.2362C180.913 55.2362 181.35 54.7995 181.35 54.2607C181.35 53.7219 180.913 53.2852 180.374 53.2852C179.835 53.2852 179.398 53.7219 179.398 54.2607C179.398 54.7995 179.835 55.2362 180.374 55.2362Z" fill="#EF4824"/>
<path id="Ellipse 1130_5" d="M49.5185 55.2362C50.0573 55.2362 50.494 54.7995 50.494 54.2607C50.494 53.7219 50.0573 53.2852 49.5185 53.2852C48.9797 53.2852 48.543 53.7219 48.543 54.2607C48.543 54.7995 48.9797 55.2362 49.5185 55.2362Z" fill="#EF4824"/>
<path id="Ellipse 751_5" d="M192.913 55.2362C193.452 55.2362 193.889 54.7995 193.889 54.2607C193.889 53.7219 193.452 53.2852 192.913 53.2852C192.374 53.2852 191.938 53.7219 191.938 54.2607C191.938 54.7995 192.374 55.2362 192.913 55.2362Z" fill="#EF4824"/>
<path id="Ellipse 1131_5" d="M61.2724 55.2362C61.8112 55.2362 62.248 54.7995 62.248 54.2607C62.248 53.7219 61.8112 53.2852 61.2724 53.2852C60.7336 53.2852 60.2969 53.7219 60.2969 54.2607C60.2969 54.7995 60.7336 55.2362 61.2724 55.2362Z" fill="#EF4824"/>
<path id="Ellipse 752_5" d="M204.667 55.2362C205.206 55.2362 205.642 54.7995 205.642 54.2607C205.642 53.7219 205.206 53.2852 204.667 53.2852C204.128 53.2852 203.691 53.7219 203.691 54.2607C203.691 54.7995 204.128 55.2362 204.667 55.2362Z" fill="#EF4824"/>
<path id="Ellipse 1132_5" d="M73.0263 55.2362C73.5651 55.2362 74.0019 54.7995 74.0019 54.2607C74.0019 53.7219 73.5651 53.2852 73.0263 53.2852C72.4875 53.2852 72.0508 53.7219 72.0508 54.2607C72.0508 54.7995 72.4875 55.2362 73.0263 55.2362Z" fill="#EF4824"/>
<path id="Ellipse 753_5" d="M216.421 55.2362C216.96 55.2362 217.396 54.7995 217.396 54.2607C217.396 53.7219 216.96 53.2852 216.421 53.2852C215.882 53.2852 215.445 53.7219 215.445 54.2607C215.445 54.7995 215.882 55.2362 216.421 55.2362Z" fill="#EF4824"/>
<path id="Ellipse 1133_5" d="M85.5615 55.2362C86.1003 55.2362 86.537 54.7995 86.537 54.2607C86.537 53.7219 86.1003 53.2852 85.5615 53.2852C85.0227 53.2852 84.5859 53.7219 84.5859 54.2607C84.5859 54.7995 85.0227 55.2362 85.5615 55.2362Z" fill="#EF4824"/>
</g>
<g id="Group 867_6">
<path id="Ellipse 744_6" d="M97.3154 68.5565C97.8542 68.5565 98.2909 68.1198 98.2909 67.581C98.2909 67.0422 97.8542 66.6055 97.3154 66.6055C96.7766 66.6055 96.3398 67.0422 96.3398 67.581C96.3398 68.1198 96.7766 68.5565 97.3154 68.5565Z" fill="#EF4824"/>
<path id="Ellipse 745_6" d="M109.069 68.5565C109.608 68.5565 110.045 68.1198 110.045 67.581C110.045 67.0422 109.608 66.6055 109.069 66.6055C108.531 66.6055 108.094 67.0422 108.094 67.581C108.094 68.1198 108.531 68.5565 109.069 68.5565Z" fill="#EF4824"/>
<path id="Ellipse 746_6" d="M120.823 68.5565C121.362 68.5565 121.799 68.1198 121.799 67.581C121.799 67.0422 121.362 66.6055 120.823 66.6055C120.284 66.6055 119.848 67.0422 119.848 67.581C119.848 68.1198 120.284 68.5565 120.823 68.5565Z" fill="#EF4824"/>
<path id="Ellipse 747_6" d="M132.577 68.5565C133.116 68.5565 133.553 68.1198 133.553 67.581C133.553 67.0422 133.116 66.6055 132.577 66.6055C132.038 66.6055 131.602 67.0422 131.602 67.581C131.602 68.1198 132.038 68.5565 132.577 68.5565Z" fill="#EF4824"/>
<path id="Ellipse 1127_6" d="M1.72163 68.5565C2.26041 68.5565 2.69717 68.1198 2.69717 67.581C2.69717 67.0422 2.26041 66.6055 1.72163 66.6055C1.18286 66.6055 0.746094 67.0422 0.746094 67.581C0.746094 68.1198 1.18286 68.5565 1.72163 68.5565Z" fill="#EF4824"/>
<path id="Path 6105_6" d="M146.088 67.581C146.088 67.7739 146.031 67.9626 145.923 68.123C145.816 68.2834 145.664 68.4085 145.486 68.4823C145.307 68.5561 145.111 68.5755 144.922 68.5378C144.733 68.5002 144.559 68.4073 144.422 68.2708C144.286 68.1344 144.193 67.9606 144.155 67.7713C144.118 67.5821 144.137 67.3859 144.211 67.2077C144.285 67.0294 144.41 66.8771 144.57 66.7699C144.731 66.6627 144.919 66.6055 145.112 66.6055C145.371 66.6055 145.619 66.7083 145.802 66.8912C145.985 67.0741 146.088 67.3223 146.088 67.581Z" fill="#EF4824"/>
<path id="Path 19272_6" d="M14.4511 67.581C14.4511 67.7739 14.3939 67.9626 14.2867 68.123C14.1795 68.2834 14.0271 68.4085 13.8489 68.4823C13.6706 68.5561 13.4745 68.5755 13.2852 68.5378C13.096 68.5002 12.9222 68.4073 12.7857 68.2708C12.6493 68.1344 12.5564 67.9606 12.5187 67.7713C12.4811 67.5821 12.5004 67.3859 12.5743 67.2077C12.6481 67.0294 12.7731 66.8771 12.9336 66.7699C13.094 66.6627 13.2826 66.6055 13.4755 66.6055C13.7343 66.6055 13.9824 66.7083 14.1653 66.8912C14.3483 67.0741 14.4511 67.3223 14.4511 67.581Z" fill="#EF4824"/>
<path id="Ellipse 748_6" d="M156.866 68.5565C157.405 68.5565 157.842 68.1198 157.842 67.581C157.842 67.0422 157.405 66.6055 156.866 66.6055C156.327 66.6055 155.891 67.0422 155.891 67.581C155.891 68.1198 156.327 68.5565 156.866 68.5565Z" fill="#EF4824"/>
<path id="Ellipse 1128_6" d="M25.2294 68.5565C25.7682 68.5565 26.205 68.1198 26.205 67.581C26.205 67.0422 25.7682 66.6055 25.2294 66.6055C24.6907 66.6055 24.2539 67.0422 24.2539 67.581C24.2539 68.1198 24.6907 68.5565 25.2294 68.5565Z" fill="#EF4824"/>
<path id="Ellipse 749_6" d="M168.62 68.5565C169.159 68.5565 169.596 68.1198 169.596 67.581C169.596 67.0422 169.159 66.6055 168.62 66.6055C168.081 66.6055 167.645 67.0422 167.645 67.581C167.645 68.1198 168.081 68.5565 168.62 68.5565Z" fill="#EF4824"/>
<path id="Ellipse 1129_6" d="M37.7685 68.5565C38.3073 68.5565 38.744 68.1198 38.744 67.581C38.744 67.0422 38.3073 66.6055 37.7685 66.6055C37.2297 66.6055 36.793 67.0422 36.793 67.581C36.793 68.1198 37.2297 68.5565 37.7685 68.5565Z" fill="#EF4824"/>
<path id="Ellipse 750_6" d="M180.374 68.5565C180.913 68.5565 181.35 68.1198 181.35 67.581C181.35 67.0422 180.913 66.6055 180.374 66.6055C179.835 66.6055 179.398 67.0422 179.398 67.581C179.398 68.1198 179.835 68.5565 180.374 68.5565Z" fill="#EF4824"/>
<path id="Ellipse 1130_6" d="M49.5185 68.5565C50.0573 68.5565 50.494 68.1198 50.494 67.581C50.494 67.0422 50.0573 66.6055 49.5185 66.6055C48.9797 66.6055 48.543 67.0422 48.543 67.581C48.543 68.1198 48.9797 68.5565 49.5185 68.5565Z" fill="#EF4824"/>
<path id="Ellipse 751_6" d="M192.913 68.5565C193.452 68.5565 193.889 68.1198 193.889 67.581C193.889 67.0422 193.452 66.6055 192.913 66.6055C192.374 66.6055 191.938 67.0422 191.938 67.581C191.938 68.1198 192.374 68.5565 192.913 68.5565Z" fill="#EF4824"/>
<path id="Ellipse 1131_6" d="M61.2724 68.5565C61.8112 68.5565 62.248 68.1198 62.248 67.581C62.248 67.0422 61.8112 66.6055 61.2724 66.6055C60.7336 66.6055 60.2969 67.0422 60.2969 67.581C60.2969 68.1198 60.7336 68.5565 61.2724 68.5565Z" fill="#EF4824"/>
<path id="Ellipse 752_6" d="M204.667 68.5565C205.206 68.5565 205.642 68.1198 205.642 67.581C205.642 67.0422 205.206 66.6055 204.667 66.6055C204.128 66.6055 203.691 67.0422 203.691 67.581C203.691 68.1198 204.128 68.5565 204.667 68.5565Z" fill="#EF4824"/>
<path id="Ellipse 1132_6" d="M73.0263 68.5565C73.5651 68.5565 74.0019 68.1198 74.0019 67.581C74.0019 67.0422 73.5651 66.6055 73.0263 66.6055C72.4875 66.6055 72.0508 67.0422 72.0508 67.581C72.0508 68.1198 72.4875 68.5565 73.0263 68.5565Z" fill="#EF4824"/>
<path id="Ellipse 753_6" d="M216.421 68.5565C216.96 68.5565 217.396 68.1198 217.396 67.581C217.396 67.0422 216.96 66.6055 216.421 66.6055C215.882 66.6055 215.445 67.0422 215.445 67.581C215.445 68.1198 215.882 68.5565 216.421 68.5565Z" fill="#EF4824"/>
<path id="Ellipse 1133_6" d="M85.5615 68.5565C86.1003 68.5565 86.537 68.1198 86.537 67.581C86.537 67.0422 86.1003 66.6055 85.5615 66.6055C85.0227 66.6055 84.5859 67.0422 84.5859 67.581C84.5859 68.1198 85.0227 68.5565 85.5615 68.5565Z" fill="#EF4824"/>
</g>
<g id="Group 867_7">
<path id="Ellipse 744_7" d="M97.3154 81.8769C97.8542 81.8769 98.2909 81.4401 98.2909 80.9013C98.2909 80.3625 97.8542 79.9258 97.3154 79.9258C96.7766 79.9258 96.3398 80.3625 96.3398 80.9013C96.3398 81.4401 96.7766 81.8769 97.3154 81.8769Z" fill="#EF4824"/>
<path id="Ellipse 745_7" d="M109.069 81.8769C109.608 81.8769 110.045 81.4401 110.045 80.9013C110.045 80.3625 109.608 79.9258 109.069 79.9258C108.531 79.9258 108.094 80.3625 108.094 80.9013C108.094 81.4401 108.531 81.8769 109.069 81.8769Z" fill="#EF4824"/>
<path id="Ellipse 746_7" d="M120.823 81.8769C121.362 81.8769 121.799 81.4401 121.799 80.9013C121.799 80.3625 121.362 79.9258 120.823 79.9258C120.284 79.9258 119.848 80.3625 119.848 80.9013C119.848 81.4401 120.284 81.8769 120.823 81.8769Z" fill="#EF4824"/>
<path id="Ellipse 747_7" d="M132.577 81.8769C133.116 81.8769 133.553 81.4401 133.553 80.9013C133.553 80.3625 133.116 79.9258 132.577 79.9258C132.038 79.9258 131.602 80.3625 131.602 80.9013C131.602 81.4401 132.038 81.8769 132.577 81.8769Z" fill="#EF4824"/>
<path id="Ellipse 1127_7" d="M1.72163 81.8769C2.26041 81.8769 2.69717 81.4401 2.69717 80.9013C2.69717 80.3625 2.26041 79.9258 1.72163 79.9258C1.18286 79.9258 0.746094 80.3625 0.746094 80.9013C0.746094 81.4401 1.18286 81.8769 1.72163 81.8769Z" fill="#EF4824"/>
<path id="Path 6105_7" d="M146.088 80.9013C146.088 81.0943 146.031 81.2829 145.923 81.4433C145.816 81.6037 145.664 81.7288 145.486 81.8026C145.307 81.8764 145.111 81.8958 144.922 81.8581C144.733 81.8205 144.559 81.7276 144.422 81.5911C144.286 81.4547 144.193 81.2809 144.155 81.0916C144.118 80.9024 144.137 80.7062 144.211 80.528C144.285 80.3497 144.41 80.1974 144.57 80.0902C144.731 79.983 144.919 79.9258 145.112 79.9258C145.371 79.9258 145.619 80.0286 145.802 80.2115C145.985 80.3945 146.088 80.6426 146.088 80.9013Z" fill="#EF4824"/>
<path id="Path 19272_7" d="M14.4511 80.9013C14.4511 81.0943 14.3939 81.2829 14.2867 81.4433C14.1795 81.6037 14.0271 81.7288 13.8489 81.8026C13.6706 81.8764 13.4745 81.8958 13.2852 81.8581C13.096 81.8205 12.9222 81.7276 12.7857 81.5911C12.6493 81.4547 12.5564 81.2809 12.5187 81.0916C12.4811 80.9024 12.5004 80.7062 12.5743 80.528C12.6481 80.3497 12.7731 80.1974 12.9336 80.0902C13.094 79.983 13.2826 79.9258 13.4755 79.9258C13.7343 79.9258 13.9824 80.0286 14.1653 80.2115C14.3483 80.3945 14.4511 80.6426 14.4511 80.9013Z" fill="#EF4824"/>
<path id="Ellipse 748_7" d="M156.866 81.8769C157.405 81.8769 157.842 81.4401 157.842 80.9013C157.842 80.3625 157.405 79.9258 156.866 79.9258C156.327 79.9258 155.891 80.3625 155.891 80.9013C155.891 81.4401 156.327 81.8769 156.866 81.8769Z" fill="#EF4824"/>
<path id="Ellipse 1128_7" d="M25.2294 81.8769C25.7682 81.8769 26.205 81.4401 26.205 80.9013C26.205 80.3625 25.7682 79.9258 25.2294 79.9258C24.6907 79.9258 24.2539 80.3625 24.2539 80.9013C24.2539 81.4401 24.6907 81.8769 25.2294 81.8769Z" fill="#EF4824"/>
<path id="Ellipse 749_7" d="M168.62 81.8769C169.159 81.8769 169.596 81.4401 169.596 80.9013C169.596 80.3625 169.159 79.9258 168.62 79.9258C168.081 79.9258 167.645 80.3625 167.645 80.9013C167.645 81.4401 168.081 81.8769 168.62 81.8769Z" fill="#EF4824"/>
<path id="Ellipse 1129_7" d="M37.7685 81.8769C38.3073 81.8769 38.744 81.4401 38.744 80.9013C38.744 80.3625 38.3073 79.9258 37.7685 79.9258C37.2297 79.9258 36.793 80.3625 36.793 80.9013C36.793 81.4401 37.2297 81.8769 37.7685 81.8769Z" fill="#EF4824"/>
<path id="Ellipse 750_7" d="M180.374 81.8769C180.913 81.8769 181.35 81.4401 181.35 80.9013C181.35 80.3625 180.913 79.9258 180.374 79.9258C179.835 79.9258 179.398 80.3625 179.398 80.9013C179.398 81.4401 179.835 81.8769 180.374 81.8769Z" fill="#EF4824"/>
<path id="Ellipse 1130_7" d="M49.5185 81.8769C50.0573 81.8769 50.494 81.4401 50.494 80.9013C50.494 80.3625 50.0573 79.9258 49.5185 79.9258C48.9797 79.9258 48.543 80.3625 48.543 80.9013C48.543 81.4401 48.9797 81.8769 49.5185 81.8769Z" fill="#EF4824"/>
<path id="Ellipse 751_7" d="M192.913 81.8769C193.452 81.8769 193.889 81.4401 193.889 80.9013C193.889 80.3625 193.452 79.9258 192.913 79.9258C192.374 79.9258 191.938 80.3625 191.938 80.9013C191.938 81.4401 192.374 81.8769 192.913 81.8769Z" fill="#EF4824"/>
<path id="Ellipse 1131_7" d="M61.2724 81.8769C61.8112 81.8769 62.248 81.4401 62.248 80.9013C62.248 80.3625 61.8112 79.9258 61.2724 79.9258C60.7336 79.9258 60.2969 80.3625 60.2969 80.9013C60.2969 81.4401 60.7336 81.8769 61.2724 81.8769Z" fill="#EF4824"/>
<path id="Ellipse 752_7" d="M204.667 81.8769C205.206 81.8769 205.642 81.4401 205.642 80.9013C205.642 80.3625 205.206 79.9258 204.667 79.9258C204.128 79.9258 203.691 80.3625 203.691 80.9013C203.691 81.4401 204.128 81.8769 204.667 81.8769Z" fill="#EF4824"/>
<path id="Ellipse 1132_7" d="M73.0263 81.8769C73.5651 81.8769 74.0019 81.4401 74.0019 80.9013C74.0019 80.3625 73.5651 79.9258 73.0263 79.9258C72.4875 79.9258 72.0508 80.3625 72.0508 80.9013C72.0508 81.4401 72.4875 81.8769 73.0263 81.8769Z" fill="#EF4824"/>
<path id="Ellipse 753_7" d="M216.421 81.8769C216.96 81.8769 217.396 81.4401 217.396 80.9013C217.396 80.3625 216.96 79.9258 216.421 79.9258C215.882 79.9258 215.445 80.3625 215.445 80.9013C215.445 81.4401 215.882 81.8769 216.421 81.8769Z" fill="#EF4824"/>
<path id="Ellipse 1133_7" d="M85.5615 81.8769C86.1003 81.8769 86.537 81.4401 86.537 80.9013C86.537 80.3625 86.1003 79.9258 85.5615 79.9258C85.0227 79.9258 84.5859 80.3625 84.5859 80.9013C84.5859 81.4401 85.0227 81.8769 85.5615 81.8769Z" fill="#EF4824"/>
</g>
<g id="Group 867_8">
<path id="Ellipse 744_8" d="M97.3154 95.1972C97.8542 95.1972 98.2909 94.7604 98.2909 94.2216C98.2909 93.6829 97.8542 93.2461 97.3154 93.2461C96.7766 93.2461 96.3398 93.6829 96.3398 94.2216C96.3398 94.7604 96.7766 95.1972 97.3154 95.1972Z" fill="#EF4824"/>
<path id="Ellipse 745_8" d="M109.069 95.1972C109.608 95.1972 110.045 94.7604 110.045 94.2216C110.045 93.6829 109.608 93.2461 109.069 93.2461C108.531 93.2461 108.094 93.6829 108.094 94.2216C108.094 94.7604 108.531 95.1972 109.069 95.1972Z" fill="#EF4824"/>
<path id="Ellipse 746_8" d="M120.823 95.1972C121.362 95.1972 121.799 94.7604 121.799 94.2216C121.799 93.6829 121.362 93.2461 120.823 93.2461C120.284 93.2461 119.848 93.6829 119.848 94.2216C119.848 94.7604 120.284 95.1972 120.823 95.1972Z" fill="#EF4824"/>
<path id="Ellipse 747_8" d="M132.577 95.1972C133.116 95.1972 133.553 94.7604 133.553 94.2216C133.553 93.6829 133.116 93.2461 132.577 93.2461C132.038 93.2461 131.602 93.6829 131.602 94.2216C131.602 94.7604 132.038 95.1972 132.577 95.1972Z" fill="#EF4824"/>
<path id="Ellipse 1127_8" d="M1.72163 95.1972C2.26041 95.1972 2.69717 94.7604 2.69717 94.2216C2.69717 93.6829 2.26041 93.2461 1.72163 93.2461C1.18286 93.2461 0.746094 93.6829 0.746094 94.2216C0.746094 94.7604 1.18286 95.1972 1.72163 95.1972Z" fill="#EF4824"/>
<path id="Path 6105_8" d="M146.088 94.2216C146.088 94.4146 146.031 94.6032 145.923 94.7636C145.816 94.924 145.664 95.0491 145.486 95.1229C145.307 95.1968 145.111 95.2161 144.922 95.1784C144.733 95.1408 144.559 95.0479 144.422 94.9115C144.286 94.775 144.193 94.6012 144.155 94.4119C144.118 94.2227 144.137 94.0266 144.211 93.8483C144.285 93.67 144.41 93.5177 144.57 93.4105C144.731 93.3033 144.919 93.2461 145.112 93.2461C145.371 93.2461 145.619 93.3489 145.802 93.5318C145.985 93.7148 146.088 93.9629 146.088 94.2216Z" fill="#EF4824"/>
<path id="Path 19272_8" d="M14.4511 94.2216C14.4511 94.4146 14.3939 94.6032 14.2867 94.7636C14.1795 94.924 14.0271 95.0491 13.8489 95.1229C13.6706 95.1968 13.4745 95.2161 13.2852 95.1784C13.096 95.1408 12.9222 95.0479 12.7857 94.9115C12.6493 94.775 12.5564 94.6012 12.5187 94.4119C12.4811 94.2227 12.5004 94.0266 12.5743 93.8483C12.6481 93.67 12.7731 93.5177 12.9336 93.4105C13.094 93.3033 13.2826 93.2461 13.4755 93.2461C13.7343 93.2461 13.9824 93.3489 14.1653 93.5318C14.3483 93.7148 14.4511 93.9629 14.4511 94.2216Z" fill="#EF4824"/>
<path id="Ellipse 748_8" d="M156.866 95.1972C157.405 95.1972 157.842 94.7604 157.842 94.2216C157.842 93.6829 157.405 93.2461 156.866 93.2461C156.327 93.2461 155.891 93.6829 155.891 94.2216C155.891 94.7604 156.327 95.1972 156.866 95.1972Z" fill="#EF4824"/>
<path id="Ellipse 1128_8" d="M25.2294 95.1972C25.7682 95.1972 26.205 94.7604 26.205 94.2216C26.205 93.6829 25.7682 93.2461 25.2294 93.2461C24.6907 93.2461 24.2539 93.6829 24.2539 94.2216C24.2539 94.7604 24.6907 95.1972 25.2294 95.1972Z" fill="#EF4824"/>
<path id="Ellipse 749_8" d="M168.62 95.1972C169.159 95.1972 169.596 94.7604 169.596 94.2216C169.596 93.6829 169.159 93.2461 168.62 93.2461C168.081 93.2461 167.645 93.6829 167.645 94.2216C167.645 94.7604 168.081 95.1972 168.62 95.1972Z" fill="#EF4824"/>
<path id="Ellipse 1129_8" d="M37.7685 95.1972C38.3073 95.1972 38.744 94.7604 38.744 94.2216C38.744 93.6829 38.3073 93.2461 37.7685 93.2461C37.2297 93.2461 36.793 93.6829 36.793 94.2216C36.793 94.7604 37.2297 95.1972 37.7685 95.1972Z" fill="#EF4824"/>
<path id="Ellipse 750_8" d="M180.374 95.1972C180.913 95.1972 181.35 94.7604 181.35 94.2216C181.35 93.6829 180.913 93.2461 180.374 93.2461C179.835 93.2461 179.398 93.6829 179.398 94.2216C179.398 94.7604 179.835 95.1972 180.374 95.1972Z" fill="#EF4824"/>
<path id="Ellipse 1130_8" d="M49.5185 95.1972C50.0573 95.1972 50.494 94.7604 50.494 94.2216C50.494 93.6829 50.0573 93.2461 49.5185 93.2461C48.9797 93.2461 48.543 93.6829 48.543 94.2216C48.543 94.7604 48.9797 95.1972 49.5185 95.1972Z" fill="#EF4824"/>
<path id="Ellipse 751_8" d="M192.913 95.1972C193.452 95.1972 193.889 94.7604 193.889 94.2216C193.889 93.6829 193.452 93.2461 192.913 93.2461C192.374 93.2461 191.938 93.6829 191.938 94.2216C191.938 94.7604 192.374 95.1972 192.913 95.1972Z" fill="#EF4824"/>
<path id="Ellipse 1131_8" d="M61.2724 95.1972C61.8112 95.1972 62.248 94.7604 62.248 94.2216C62.248 93.6829 61.8112 93.2461 61.2724 93.2461C60.7336 93.2461 60.2969 93.6829 60.2969 94.2216C60.2969 94.7604 60.7336 95.1972 61.2724 95.1972Z" fill="#EF4824"/>
<path id="Ellipse 752_8" d="M204.667 95.1972C205.206 95.1972 205.642 94.7604 205.642 94.2216C205.642 93.6829 205.206 93.2461 204.667 93.2461C204.128 93.2461 203.691 93.6829 203.691 94.2216C203.691 94.7604 204.128 95.1972 204.667 95.1972Z" fill="#EF4824"/>
<path id="Ellipse 1132_8" d="M73.0263 95.1972C73.5651 95.1972 74.0019 94.7604 74.0019 94.2216C74.0019 93.6829 73.5651 93.2461 73.0263 93.2461C72.4875 93.2461 72.0508 93.6829 72.0508 94.2216C72.0508 94.7604 72.4875 95.1972 73.0263 95.1972Z" fill="#EF4824"/>
<path id="Ellipse 753_8" d="M216.421 95.1972C216.96 95.1972 217.396 94.7604 217.396 94.2216C217.396 93.6829 216.96 93.2461 216.421 93.2461C215.882 93.2461 215.445 93.6829 215.445 94.2216C215.445 94.7604 215.882 95.1972 216.421 95.1972Z" fill="#EF4824"/>
<path id="Ellipse 1133_8" d="M85.5615 95.1972C86.1003 95.1972 86.537 94.7604 86.537 94.2216C86.537 93.6829 86.1003 93.2461 85.5615 93.2461C85.0227 93.2461 84.5859 93.6829 84.5859 94.2216C84.5859 94.7604 85.0227 95.1972 85.5615 95.1972Z" fill="#EF4824"/>
</g>
<g id="Group 867_9">
<path id="Ellipse 744_9" d="M97.3154 108.514C97.8542 108.514 98.2909 108.077 98.2909 107.538C98.2909 106.999 97.8542 106.562 97.3154 106.562C96.7766 106.562 96.3398 106.999 96.3398 107.538C96.3398 108.077 96.7766 108.514 97.3154 108.514Z" fill="#EF4824"/>
<path id="Ellipse 745_9" d="M109.069 108.514C109.608 108.514 110.045 108.077 110.045 107.538C110.045 106.999 109.608 106.562 109.069 106.562C108.531 106.562 108.094 106.999 108.094 107.538C108.094 108.077 108.531 108.514 109.069 108.514Z" fill="#EF4824"/>
<path id="Ellipse 746_9" d="M120.823 108.514C121.362 108.514 121.799 108.077 121.799 107.538C121.799 106.999 121.362 106.562 120.823 106.562C120.284 106.562 119.848 106.999 119.848 107.538C119.848 108.077 120.284 108.514 120.823 108.514Z" fill="#EF4824"/>
<path id="Ellipse 747_9" d="M132.577 108.514C133.116 108.514 133.553 108.077 133.553 107.538C133.553 106.999 133.116 106.562 132.577 106.562C132.038 106.562 131.602 106.999 131.602 107.538C131.602 108.077 132.038 108.514 132.577 108.514Z" fill="#EF4824"/>
<path id="Ellipse 1127_9" d="M1.72163 108.514C2.26041 108.514 2.69717 108.077 2.69717 107.538C2.69717 106.999 2.26041 106.562 1.72163 106.562C1.18286 106.562 0.746094 106.999 0.746094 107.538C0.746094 108.077 1.18286 108.514 1.72163 108.514Z" fill="#EF4824"/>
<path id="Path 6105_9" d="M146.088 107.538C146.088 107.731 146.031 107.92 145.923 108.08C145.816 108.24 145.664 108.365 145.486 108.439C145.307 108.513 145.111 108.532 144.922 108.495C144.733 108.457 144.559 108.364 144.422 108.228C144.286 108.091 144.193 107.918 144.155 107.728C144.118 107.539 144.137 107.343 144.211 107.165C144.285 106.986 144.41 106.834 144.57 106.727C144.731 106.62 144.919 106.562 145.112 106.562C145.371 106.562 145.619 106.665 145.802 106.848C145.985 107.031 146.088 107.279 146.088 107.538Z" fill="#EF4824"/>
<path id="Path 19272_9" d="M14.4511 107.538C14.4511 107.731 14.3939 107.92 14.2867 108.08C14.1795 108.24 14.0271 108.365 13.8489 108.439C13.6706 108.513 13.4745 108.532 13.2852 108.495C13.096 108.457 12.9222 108.364 12.7857 108.228C12.6493 108.091 12.5564 107.918 12.5187 107.728C12.4811 107.539 12.5004 107.343 12.5743 107.165C12.6481 106.986 12.7731 106.834 12.9336 106.727C13.094 106.62 13.2826 106.562 13.4755 106.562C13.7343 106.562 13.9824 106.665 14.1653 106.848C14.3483 107.031 14.4511 107.279 14.4511 107.538Z" fill="#EF4824"/>
<path id="Ellipse 748_9" d="M156.866 108.514C157.405 108.514 157.842 108.077 157.842 107.538C157.842 106.999 157.405 106.562 156.866 106.562C156.327 106.562 155.891 106.999 155.891 107.538C155.891 108.077 156.327 108.514 156.866 108.514Z" fill="#EF4824"/>
<path id="Ellipse 1128_9" d="M25.2294 108.514C25.7682 108.514 26.205 108.077 26.205 107.538C26.205 106.999 25.7682 106.562 25.2294 106.562C24.6907 106.562 24.2539 106.999 24.2539 107.538C24.2539 108.077 24.6907 108.514 25.2294 108.514Z" fill="#EF4824"/>
<path id="Ellipse 749_9" d="M168.62 108.514C169.159 108.514 169.596 108.077 169.596 107.538C169.596 106.999 169.159 106.562 168.62 106.562C168.081 106.562 167.645 106.999 167.645 107.538C167.645 108.077 168.081 108.514 168.62 108.514Z" fill="#EF4824"/>
<path id="Ellipse 1129_9" d="M37.7685 108.514C38.3073 108.514 38.744 108.077 38.744 107.538C38.744 106.999 38.3073 106.562 37.7685 106.562C37.2297 106.562 36.793 106.999 36.793 107.538C36.793 108.077 37.2297 108.514 37.7685 108.514Z" fill="#EF4824"/>
<path id="Ellipse 750_9" d="M180.374 108.514C180.913 108.514 181.35 108.077 181.35 107.538C181.35 106.999 180.913 106.562 180.374 106.562C179.835 106.562 179.398 106.999 179.398 107.538C179.398 108.077 179.835 108.514 180.374 108.514Z" fill="#EF4824"/>
<path id="Ellipse 1130_9" d="M49.5185 108.514C50.0573 108.514 50.494 108.077 50.494 107.538C50.494 106.999 50.0573 106.562 49.5185 106.562C48.9797 106.562 48.543 106.999 48.543 107.538C48.543 108.077 48.9797 108.514 49.5185 108.514Z" fill="#EF4824"/>
<path id="Ellipse 751_9" d="M192.913 108.514C193.452 108.514 193.889 108.077 193.889 107.538C193.889 106.999 193.452 106.562 192.913 106.562C192.374 106.562 191.938 106.999 191.938 107.538C191.938 108.077 192.374 108.514 192.913 108.514Z" fill="#EF4824"/>
<path id="Ellipse 1131_9" d="M61.2724 108.514C61.8112 108.514 62.248 108.077 62.248 107.538C62.248 106.999 61.8112 106.562 61.2724 106.562C60.7336 106.562 60.2969 106.999 60.2969 107.538C60.2969 108.077 60.7336 108.514 61.2724 108.514Z" fill="#EF4824"/>
<path id="Ellipse 752_9" d="M204.667 108.514C205.206 108.514 205.642 108.077 205.642 107.538C205.642 106.999 205.206 106.562 204.667 106.562C204.128 106.562 203.691 106.999 203.691 107.538C203.691 108.077 204.128 108.514 204.667 108.514Z" fill="#EF4824"/>
<path id="Ellipse 1132_9" d="M73.0263 108.514C73.5651 108.514 74.0019 108.077 74.0019 107.538C74.0019 106.999 73.5651 106.562 73.0263 106.562C72.4875 106.562 72.0508 106.999 72.0508 107.538C72.0508 108.077 72.4875 108.514 73.0263 108.514Z" fill="#EF4824"/>
<path id="Ellipse 753_9" d="M216.421 108.514C216.96 108.514 217.396 108.077 217.396 107.538C217.396 106.999 216.96 106.562 216.421 106.562C215.882 106.562 215.445 106.999 215.445 107.538C215.445 108.077 215.882 108.514 216.421 108.514Z" fill="#EF4824"/>
<path id="Ellipse 1133_9" d="M85.5615 108.514C86.1003 108.514 86.537 108.077 86.537 107.538C86.537 106.999 86.1003 106.562 85.5615 106.562C85.0227 106.562 84.5859 106.999 84.5859 107.538C84.5859 108.077 85.0227 108.514 85.5615 108.514Z" fill="#EF4824"/>
</g>
<g id="Group 867_10">
<path id="Ellipse 744_10" d="M97.3154 121.838C97.8542 121.838 98.2909 121.401 98.2909 120.862C98.2909 120.323 97.8542 119.887 97.3154 119.887C96.7766 119.887 96.3398 120.323 96.3398 120.862C96.3398 121.401 96.7766 121.838 97.3154 121.838Z" fill="#EF4824"/>
<path id="Ellipse 745_10" d="M109.069 121.838C109.608 121.838 110.045 121.401 110.045 120.862C110.045 120.323 109.608 119.887 109.069 119.887C108.531 119.887 108.094 120.323 108.094 120.862C108.094 121.401 108.531 121.838 109.069 121.838Z" fill="#EF4824"/>
<path id="Ellipse 746_10" d="M120.823 121.838C121.362 121.838 121.799 121.401 121.799 120.862C121.799 120.323 121.362 119.887 120.823 119.887C120.284 119.887 119.848 120.323 119.848 120.862C119.848 121.401 120.284 121.838 120.823 121.838Z" fill="#EF4824"/>
<path id="Ellipse 747_10" d="M132.577 121.838C133.116 121.838 133.553 121.401 133.553 120.862C133.553 120.323 133.116 119.887 132.577 119.887C132.038 119.887 131.602 120.323 131.602 120.862C131.602 121.401 132.038 121.838 132.577 121.838Z" fill="#EF4824"/>
<path id="Ellipse 1127_10" d="M1.72163 121.838C2.26041 121.838 2.69717 121.401 2.69717 120.862C2.69717 120.323 2.26041 119.887 1.72163 119.887C1.18286 119.887 0.746094 120.323 0.746094 120.862C0.746094 121.401 1.18286 121.838 1.72163 121.838Z" fill="#EF4824"/>
<path id="Path 6105_10" d="M146.088 120.862C146.088 121.055 146.031 121.244 145.923 121.404C145.816 121.565 145.664 121.69 145.486 121.764C145.307 121.837 145.111 121.857 144.922 121.819C144.733 121.781 144.559 121.689 144.422 121.552C144.286 121.416 144.193 121.242 144.155 121.053C144.118 120.863 144.137 120.667 144.211 120.489C144.285 120.311 144.41 120.158 144.57 120.051C144.731 119.944 144.919 119.887 145.112 119.887C145.371 119.887 145.619 119.99 145.802 120.172C145.985 120.355 146.088 120.604 146.088 120.862Z" fill="#EF4824"/>
<path id="Path 19272_10" d="M14.4511 120.862C14.4511 121.055 14.3939 121.244 14.2867 121.404C14.1795 121.565 14.0271 121.69 13.8489 121.764C13.6706 121.837 13.4745 121.857 13.2852 121.819C13.096 121.781 12.9222 121.689 12.7857 121.552C12.6493 121.416 12.5564 121.242 12.5187 121.053C12.4811 120.863 12.5004 120.667 12.5743 120.489C12.6481 120.311 12.7731 120.158 12.9336 120.051C13.094 119.944 13.2826 119.887 13.4755 119.887C13.7343 119.887 13.9824 119.99 14.1653 120.172C14.3483 120.355 14.4511 120.604 14.4511 120.862Z" fill="#EF4824"/>
<path id="Ellipse 748_10" d="M156.866 121.838C157.405 121.838 157.842 121.401 157.842 120.862C157.842 120.323 157.405 119.887 156.866 119.887C156.327 119.887 155.891 120.323 155.891 120.862C155.891 121.401 156.327 121.838 156.866 121.838Z" fill="#EF4824"/>
<path id="Ellipse 1128_10" d="M25.2294 121.838C25.7682 121.838 26.205 121.401 26.205 120.862C26.205 120.323 25.7682 119.887 25.2294 119.887C24.6907 119.887 24.2539 120.323 24.2539 120.862C24.2539 121.401 24.6907 121.838 25.2294 121.838Z" fill="#EF4824"/>
<path id="Ellipse 749_10" d="M168.62 121.838C169.159 121.838 169.596 121.401 169.596 120.862C169.596 120.323 169.159 119.887 168.62 119.887C168.081 119.887 167.645 120.323 167.645 120.862C167.645 121.401 168.081 121.838 168.62 121.838Z" fill="#EF4824"/>
<path id="Ellipse 1129_10" d="M37.7685 121.838C38.3073 121.838 38.744 121.401 38.744 120.862C38.744 120.323 38.3073 119.887 37.7685 119.887C37.2297 119.887 36.793 120.323 36.793 120.862C36.793 121.401 37.2297 121.838 37.7685 121.838Z" fill="#EF4824"/>
<path id="Ellipse 750_10" d="M180.374 121.838C180.913 121.838 181.35 121.401 181.35 120.862C181.35 120.323 180.913 119.887 180.374 119.887C179.835 119.887 179.398 120.323 179.398 120.862C179.398 121.401 179.835 121.838 180.374 121.838Z" fill="#EF4824"/>
<path id="Ellipse 1130_10" d="M49.5185 121.838C50.0573 121.838 50.494 121.401 50.494 120.862C50.494 120.323 50.0573 119.887 49.5185 119.887C48.9797 119.887 48.543 120.323 48.543 120.862C48.543 121.401 48.9797 121.838 49.5185 121.838Z" fill="#EF4824"/>
<path id="Ellipse 751_10" d="M192.913 121.838C193.452 121.838 193.889 121.401 193.889 120.862C193.889 120.323 193.452 119.887 192.913 119.887C192.374 119.887 191.938 120.323 191.938 120.862C191.938 121.401 192.374 121.838 192.913 121.838Z" fill="#EF4824"/>
<path id="Ellipse 1131_10" d="M61.2724 121.838C61.8112 121.838 62.248 121.401 62.248 120.862C62.248 120.323 61.8112 119.887 61.2724 119.887C60.7336 119.887 60.2969 120.323 60.2969 120.862C60.2969 121.401 60.7336 121.838 61.2724 121.838Z" fill="#EF4824"/>
<path id="Ellipse 752_10" d="M204.667 121.838C205.206 121.838 205.642 121.401 205.642 120.862C205.642 120.323 205.206 119.887 204.667 119.887C204.128 119.887 203.691 120.323 203.691 120.862C203.691 121.401 204.128 121.838 204.667 121.838Z" fill="#EF4824"/>
<path id="Ellipse 1132_10" d="M73.0263 121.838C73.5651 121.838 74.0019 121.401 74.0019 120.862C74.0019 120.323 73.5651 119.887 73.0263 119.887C72.4875 119.887 72.0508 120.323 72.0508 120.862C72.0508 121.401 72.4875 121.838 73.0263 121.838Z" fill="#EF4824"/>
<path id="Ellipse 753_10" d="M216.421 121.838C216.96 121.838 217.396 121.401 217.396 120.862C217.396 120.323 216.96 119.887 216.421 119.887C215.882 119.887 215.445 120.323 215.445 120.862C215.445 121.401 215.882 121.838 216.421 121.838Z" fill="#EF4824"/>
<path id="Ellipse 1133_10" d="M85.5615 121.838C86.1003 121.838 86.537 121.401 86.537 120.862C86.537 120.323 86.1003 119.887 85.5615 119.887C85.0227 119.887 84.5859 120.323 84.5859 120.862C84.5859 121.401 85.0227 121.838 85.5615 121.838Z" fill="#EF4824"/>
</g>
<g id="Group 867_11">
<path id="Ellipse 744_11" d="M97.3154 135.162C97.8542 135.162 98.2909 134.725 98.2909 134.186C98.2909 133.648 97.8542 133.211 97.3154 133.211C96.7766 133.211 96.3398 133.648 96.3398 134.186C96.3398 134.725 96.7766 135.162 97.3154 135.162Z" fill="#EF4824"/>
<path id="Ellipse 745_11" d="M109.069 135.162C109.608 135.162 110.045 134.725 110.045 134.186C110.045 133.648 109.608 133.211 109.069 133.211C108.531 133.211 108.094 133.648 108.094 134.186C108.094 134.725 108.531 135.162 109.069 135.162Z" fill="#EF4824"/>
<path id="Ellipse 746_11" d="M120.823 135.162C121.362 135.162 121.799 134.725 121.799 134.186C121.799 133.648 121.362 133.211 120.823 133.211C120.284 133.211 119.848 133.648 119.848 134.186C119.848 134.725 120.284 135.162 120.823 135.162Z" fill="#EF4824"/>
<path id="Ellipse 747_11" d="M132.577 135.162C133.116 135.162 133.553 134.725 133.553 134.186C133.553 133.648 133.116 133.211 132.577 133.211C132.038 133.211 131.602 133.648 131.602 134.186C131.602 134.725 132.038 135.162 132.577 135.162Z" fill="#EF4824"/>
<path id="Ellipse 1127_11" d="M1.72163 135.162C2.26041 135.162 2.69717 134.725 2.69717 134.186C2.69717 133.648 2.26041 133.211 1.72163 133.211C1.18286 133.211 0.746094 133.648 0.746094 134.186C0.746094 134.725 1.18286 135.162 1.72163 135.162Z" fill="#EF4824"/>
<path id="Path 6105_11" d="M146.088 134.186C146.088 134.379 146.031 134.568 145.923 134.728C145.816 134.889 145.664 135.014 145.486 135.088C145.307 135.162 145.111 135.181 144.922 135.143C144.733 135.106 144.559 135.013 144.422 134.876C144.286 134.74 144.193 134.566 144.155 134.377C144.118 134.188 144.137 133.991 144.211 133.813C144.285 133.635 144.41 133.483 144.57 133.375C144.731 133.268 144.919 133.211 145.112 133.211C145.371 133.211 145.619 133.314 145.802 133.497C145.985 133.68 146.088 133.928 146.088 134.186Z" fill="#EF4824"/>
<path id="Path 19272_11" d="M14.4511 134.186C14.4511 134.379 14.3939 134.568 14.2867 134.728C14.1795 134.889 14.0271 135.014 13.8489 135.088C13.6706 135.162 13.4745 135.181 13.2852 135.143C13.096 135.106 12.9222 135.013 12.7857 134.876C12.6493 134.74 12.5564 134.566 12.5187 134.377C12.4811 134.188 12.5004 133.991 12.5743 133.813C12.6481 133.635 12.7731 133.483 12.9336 133.375C13.094 133.268 13.2826 133.211 13.4755 133.211C13.7343 133.211 13.9824 133.314 14.1653 133.497C14.3483 133.68 14.4511 133.928 14.4511 134.186Z" fill="#EF4824"/>
<path id="Ellipse 748_11" d="M156.866 135.162C157.405 135.162 157.842 134.725 157.842 134.186C157.842 133.648 157.405 133.211 156.866 133.211C156.327 133.211 155.891 133.648 155.891 134.186C155.891 134.725 156.327 135.162 156.866 135.162Z" fill="#EF4824"/>
<path id="Ellipse 1128_11" d="M25.2294 135.162C25.7682 135.162 26.205 134.725 26.205 134.186C26.205 133.648 25.7682 133.211 25.2294 133.211C24.6907 133.211 24.2539 133.648 24.2539 134.186C24.2539 134.725 24.6907 135.162 25.2294 135.162Z" fill="#EF4824"/>
<path id="Ellipse 749_11" d="M168.62 135.162C169.159 135.162 169.596 134.725 169.596 134.186C169.596 133.648 169.159 133.211 168.62 133.211C168.081 133.211 167.645 133.648 167.645 134.186C167.645 134.725 168.081 135.162 168.62 135.162Z" fill="#EF4824"/>
<path id="Ellipse 1129_11" d="M37.7685 135.162C38.3073 135.162 38.744 134.725 38.744 134.186C38.744 133.648 38.3073 133.211 37.7685 133.211C37.2297 133.211 36.793 133.648 36.793 134.186C36.793 134.725 37.2297 135.162 37.7685 135.162Z" fill="#EF4824"/>
<path id="Ellipse 750_11" d="M180.374 135.162C180.913 135.162 181.35 134.725 181.35 134.186C181.35 133.648 180.913 133.211 180.374 133.211C179.835 133.211 179.398 133.648 179.398 134.186C179.398 134.725 179.835 135.162 180.374 135.162Z" fill="#EF4824"/>
<path id="Ellipse 1130_11" d="M49.5185 135.162C50.0573 135.162 50.494 134.725 50.494 134.186C50.494 133.648 50.0573 133.211 49.5185 133.211C48.9797 133.211 48.543 133.648 48.543 134.186C48.543 134.725 48.9797 135.162 49.5185 135.162Z" fill="#EF4824"/>
<path id="Ellipse 751_11" d="M192.913 135.162C193.452 135.162 193.889 134.725 193.889 134.186C193.889 133.648 193.452 133.211 192.913 133.211C192.374 133.211 191.938 133.648 191.938 134.186C191.938 134.725 192.374 135.162 192.913 135.162Z" fill="#EF4824"/>
<path id="Ellipse 1131_11" d="M61.2724 135.162C61.8112 135.162 62.248 134.725 62.248 134.186C62.248 133.648 61.8112 133.211 61.2724 133.211C60.7336 133.211 60.2969 133.648 60.2969 134.186C60.2969 134.725 60.7336 135.162 61.2724 135.162Z" fill="#EF4824"/>
<path id="Ellipse 752_11" d="M204.667 135.162C205.206 135.162 205.642 134.725 205.642 134.186C205.642 133.648 205.206 133.211 204.667 133.211C204.128 133.211 203.691 133.648 203.691 134.186C203.691 134.725 204.128 135.162 204.667 135.162Z" fill="#EF4824"/>
<path id="Ellipse 1132_11" d="M73.0263 135.162C73.5651 135.162 74.0019 134.725 74.0019 134.186C74.0019 133.648 73.5651 133.211 73.0263 133.211C72.4875 133.211 72.0508 133.648 72.0508 134.186C72.0508 134.725 72.4875 135.162 73.0263 135.162Z" fill="#EF4824"/>
<path id="Ellipse 753_11" d="M216.421 135.162C216.96 135.162 217.396 134.725 217.396 134.186C217.396 133.648 216.96 133.211 216.421 133.211C215.882 133.211 215.445 133.648 215.445 134.186C215.445 134.725 215.882 135.162 216.421 135.162Z" fill="#EF4824"/>
<path id="Ellipse 1133_11" d="M85.5615 135.162C86.1003 135.162 86.537 134.725 86.537 134.186C86.537 133.648 86.1003 133.211 85.5615 133.211C85.0227 133.211 84.5859 133.648 84.5859 134.186C84.5859 134.725 85.0227 135.162 85.5615 135.162Z" fill="#EF4824"/>
</g>
<g id="Group 867_12">
<path id="Ellipse 744_12" d="M97.3154 148.475C97.8542 148.475 98.2909 148.038 98.2909 147.499C98.2909 146.96 97.8542 146.523 97.3154 146.523C96.7766 146.523 96.3398 146.96 96.3398 147.499C96.3398 148.038 96.7766 148.475 97.3154 148.475Z" fill="#EF4824"/>
<path id="Ellipse 745_12" d="M109.069 148.475C109.608 148.475 110.045 148.038 110.045 147.499C110.045 146.96 109.608 146.523 109.069 146.523C108.531 146.523 108.094 146.96 108.094 147.499C108.094 148.038 108.531 148.475 109.069 148.475Z" fill="#EF4824"/>
<path id="Ellipse 746_12" d="M120.823 148.475C121.362 148.475 121.799 148.038 121.799 147.499C121.799 146.96 121.362 146.523 120.823 146.523C120.284 146.523 119.848 146.96 119.848 147.499C119.848 148.038 120.284 148.475 120.823 148.475Z" fill="#EF4824"/>
<path id="Ellipse 747_12" d="M132.577 148.475C133.116 148.475 133.553 148.038 133.553 147.499C133.553 146.96 133.116 146.523 132.577 146.523C132.038 146.523 131.602 146.96 131.602 147.499C131.602 148.038 132.038 148.475 132.577 148.475Z" fill="#EF4824"/>
<path id="Ellipse 1127_12" d="M1.72163 148.475C2.26041 148.475 2.69717 148.038 2.69717 147.499C2.69717 146.96 2.26041 146.523 1.72163 146.523C1.18286 146.523 0.746094 146.96 0.746094 147.499C0.746094 148.038 1.18286 148.475 1.72163 148.475Z" fill="#EF4824"/>
<path id="Path 6105_12" d="M146.088 147.499C146.088 147.692 146.031 147.881 145.923 148.041C145.816 148.201 145.664 148.326 145.486 148.4C145.307 148.474 145.111 148.493 144.922 148.456C144.733 148.418 144.559 148.325 144.422 148.189C144.286 148.052 144.193 147.879 144.155 147.689C144.118 147.5 144.137 147.304 144.211 147.126C144.285 146.947 144.41 146.795 144.57 146.688C144.731 146.581 144.919 146.523 145.112 146.523C145.371 146.523 145.619 146.626 145.802 146.809C145.985 146.992 146.088 147.24 146.088 147.499Z" fill="#EF4824"/>
<path id="Path 19272_12" d="M14.4511 147.499C14.4511 147.692 14.3939 147.881 14.2867 148.041C14.1795 148.201 14.0271 148.326 13.8489 148.4C13.6706 148.474 13.4745 148.493 13.2852 148.456C13.096 148.418 12.9222 148.325 12.7857 148.189C12.6493 148.052 12.5564 147.879 12.5187 147.689C12.4811 147.5 12.5004 147.304 12.5743 147.126C12.6481 146.947 12.7731 146.795 12.9336 146.688C13.094 146.581 13.2826 146.523 13.4755 146.523C13.7343 146.523 13.9824 146.626 14.1653 146.809C14.3483 146.992 14.4511 147.24 14.4511 147.499Z" fill="#EF4824"/>
<path id="Ellipse 748_12" d="M156.866 148.475C157.405 148.475 157.842 148.038 157.842 147.499C157.842 146.96 157.405 146.523 156.866 146.523C156.327 146.523 155.891 146.96 155.891 147.499C155.891 148.038 156.327 148.475 156.866 148.475Z" fill="#EF4824"/>
<path id="Ellipse 1128_12" d="M25.2294 148.475C25.7682 148.475 26.205 148.038 26.205 147.499C26.205 146.96 25.7682 146.523 25.2294 146.523C24.6907 146.523 24.2539 146.96 24.2539 147.499C24.2539 148.038 24.6907 148.475 25.2294 148.475Z" fill="#EF4824"/>
<path id="Ellipse 749_12" d="M168.62 148.475C169.159 148.475 169.596 148.038 169.596 147.499C169.596 146.96 169.159 146.523 168.62 146.523C168.081 146.523 167.645 146.96 167.645 147.499C167.645 148.038 168.081 148.475 168.62 148.475Z" fill="#EF4824"/>
<path id="Ellipse 1129_12" d="M37.7685 148.475C38.3073 148.475 38.744 148.038 38.744 147.499C38.744 146.96 38.3073 146.523 37.7685 146.523C37.2297 146.523 36.793 146.96 36.793 147.499C36.793 148.038 37.2297 148.475 37.7685 148.475Z" fill="#EF4824"/>
<path id="Ellipse 750_12" d="M180.374 148.475C180.913 148.475 181.35 148.038 181.35 147.499C181.35 146.96 180.913 146.523 180.374 146.523C179.835 146.523 179.398 146.96 179.398 147.499C179.398 148.038 179.835 148.475 180.374 148.475Z" fill="#EF4824"/>
<path id="Ellipse 1130_12" d="M49.5185 148.475C50.0573 148.475 50.494 148.038 50.494 147.499C50.494 146.96 50.0573 146.523 49.5185 146.523C48.9797 146.523 48.543 146.96 48.543 147.499C48.543 148.038 48.9797 148.475 49.5185 148.475Z" fill="#EF4824"/>
<path id="Ellipse 751_12" d="M192.913 148.475C193.452 148.475 193.889 148.038 193.889 147.499C193.889 146.96 193.452 146.523 192.913 146.523C192.374 146.523 191.938 146.96 191.938 147.499C191.938 148.038 192.374 148.475 192.913 148.475Z" fill="#EF4824"/>
<path id="Ellipse 1131_12" d="M61.2724 148.475C61.8112 148.475 62.248 148.038 62.248 147.499C62.248 146.96 61.8112 146.523 61.2724 146.523C60.7336 146.523 60.2969 146.96 60.2969 147.499C60.2969 148.038 60.7336 148.475 61.2724 148.475Z" fill="#EF4824"/>
<path id="Ellipse 752_12" d="M204.667 148.475C205.206 148.475 205.642 148.038 205.642 147.499C205.642 146.96 205.206 146.523 204.667 146.523C204.128 146.523 203.691 146.96 203.691 147.499C203.691 148.038 204.128 148.475 204.667 148.475Z" fill="#EF4824"/>
<path id="Ellipse 1132_12" d="M73.0263 148.475C73.5651 148.475 74.0019 148.038 74.0019 147.499C74.0019 146.96 73.5651 146.523 73.0263 146.523C72.4875 146.523 72.0508 146.96 72.0508 147.499C72.0508 148.038 72.4875 148.475 73.0263 148.475Z" fill="#EF4824"/>
<path id="Ellipse 753_12" d="M216.421 148.475C216.96 148.475 217.396 148.038 217.396 147.499C217.396 146.96 216.96 146.523 216.421 146.523C215.882 146.523 215.445 146.96 215.445 147.499C215.445 148.038 215.882 148.475 216.421 148.475Z" fill="#EF4824"/>
<path id="Ellipse 1133_12" d="M85.5615 148.475C86.1003 148.475 86.537 148.038 86.537 147.499C86.537 146.96 86.1003 146.523 85.5615 146.523C85.0227 146.523 84.5859 146.96 84.5859 147.499C84.5859 148.038 85.0227 148.475 85.5615 148.475Z" fill="#EF4824"/>
</g>
<g id="Group 867_13">
<path id="Ellipse 744_13" d="M97.3154 161.799C97.8542 161.799 98.2909 161.362 98.2909 160.823C98.2909 160.284 97.8542 159.848 97.3154 159.848C96.7766 159.848 96.3398 160.284 96.3398 160.823C96.3398 161.362 96.7766 161.799 97.3154 161.799Z" fill="#EF4824"/>
<path id="Ellipse 745_13" d="M109.069 161.799C109.608 161.799 110.045 161.362 110.045 160.823C110.045 160.284 109.608 159.848 109.069 159.848C108.531 159.848 108.094 160.284 108.094 160.823C108.094 161.362 108.531 161.799 109.069 161.799Z" fill="#EF4824"/>
<path id="Ellipse 746_13" d="M120.823 161.799C121.362 161.799 121.799 161.362 121.799 160.823C121.799 160.284 121.362 159.848 120.823 159.848C120.284 159.848 119.848 160.284 119.848 160.823C119.848 161.362 120.284 161.799 120.823 161.799Z" fill="#EF4824"/>
<path id="Ellipse 747_13" d="M132.577 161.799C133.116 161.799 133.553 161.362 133.553 160.823C133.553 160.284 133.116 159.848 132.577 159.848C132.038 159.848 131.602 160.284 131.602 160.823C131.602 161.362 132.038 161.799 132.577 161.799Z" fill="#EF4824"/>
<path id="Ellipse 1127_13" d="M1.72163 161.799C2.26041 161.799 2.69717 161.362 2.69717 160.823C2.69717 160.284 2.26041 159.848 1.72163 159.848C1.18286 159.848 0.746094 160.284 0.746094 160.823C0.746094 161.362 1.18286 161.799 1.72163 161.799Z" fill="#EF4824"/>
<path id="Path 6105_13" d="M146.088 160.823C146.088 161.016 146.031 161.205 145.923 161.365C145.816 161.526 145.664 161.651 145.486 161.724C145.307 161.798 145.111 161.818 144.922 161.78C144.733 161.742 144.559 161.649 144.422 161.513C144.286 161.377 144.193 161.203 144.155 161.014C144.118 160.824 144.137 160.628 144.211 160.45C144.285 160.272 144.41 160.119 144.57 160.012C144.731 159.905 144.919 159.848 145.112 159.848C145.371 159.848 145.619 159.95 145.802 160.133C145.985 160.316 146.088 160.564 146.088 160.823Z" fill="#EF4824"/>
<path id="Path 19272_13" d="M14.4511 160.823C14.4511 161.016 14.3939 161.205 14.2867 161.365C14.1795 161.526 14.0271 161.651 13.8489 161.724C13.6706 161.798 13.4745 161.818 13.2852 161.78C13.096 161.742 12.9222 161.649 12.7857 161.513C12.6493 161.377 12.5564 161.203 12.5187 161.014C12.4811 160.824 12.5004 160.628 12.5743 160.45C12.6481 160.272 12.7731 160.119 12.9336 160.012C13.094 159.905 13.2826 159.848 13.4755 159.848C13.7343 159.848 13.9824 159.95 14.1653 160.133C14.3483 160.316 14.4511 160.564 14.4511 160.823Z" fill="#EF4824"/>
<path id="Ellipse 748_13" d="M156.866 161.799C157.405 161.799 157.842 161.362 157.842 160.823C157.842 160.284 157.405 159.848 156.866 159.848C156.327 159.848 155.891 160.284 155.891 160.823C155.891 161.362 156.327 161.799 156.866 161.799Z" fill="#EF4824"/>
<path id="Ellipse 1128_13" d="M25.2294 161.799C25.7682 161.799 26.205 161.362 26.205 160.823C26.205 160.284 25.7682 159.848 25.2294 159.848C24.6907 159.848 24.2539 160.284 24.2539 160.823C24.2539 161.362 24.6907 161.799 25.2294 161.799Z" fill="#EF4824"/>
<path id="Ellipse 749_13" d="M168.62 161.799C169.159 161.799 169.596 161.362 169.596 160.823C169.596 160.284 169.159 159.848 168.62 159.848C168.081 159.848 167.645 160.284 167.645 160.823C167.645 161.362 168.081 161.799 168.62 161.799Z" fill="#EF4824"/>
<path id="Ellipse 1129_13" d="M37.7685 161.799C38.3073 161.799 38.744 161.362 38.744 160.823C38.744 160.284 38.3073 159.848 37.7685 159.848C37.2297 159.848 36.793 160.284 36.793 160.823C36.793 161.362 37.2297 161.799 37.7685 161.799Z" fill="#EF4824"/>
<path id="Ellipse 750_13" d="M180.374 161.799C180.913 161.799 181.35 161.362 181.35 160.823C181.35 160.284 180.913 159.848 180.374 159.848C179.835 159.848 179.398 160.284 179.398 160.823C179.398 161.362 179.835 161.799 180.374 161.799Z" fill="#EF4824"/>
<path id="Ellipse 1130_13" d="M49.5185 161.799C50.0573 161.799 50.494 161.362 50.494 160.823C50.494 160.284 50.0573 159.848 49.5185 159.848C48.9797 159.848 48.543 160.284 48.543 160.823C48.543 161.362 48.9797 161.799 49.5185 161.799Z" fill="#EF4824"/>
<path id="Ellipse 751_13" d="M192.913 161.799C193.452 161.799 193.889 161.362 193.889 160.823C193.889 160.284 193.452 159.848 192.913 159.848C192.374 159.848 191.938 160.284 191.938 160.823C191.938 161.362 192.374 161.799 192.913 161.799Z" fill="#EF4824"/>
<path id="Ellipse 1131_13" d="M61.2724 161.799C61.8112 161.799 62.248 161.362 62.248 160.823C62.248 160.284 61.8112 159.848 61.2724 159.848C60.7336 159.848 60.2969 160.284 60.2969 160.823C60.2969 161.362 60.7336 161.799 61.2724 161.799Z" fill="#EF4824"/>
<path id="Ellipse 752_13" d="M204.667 161.799C205.206 161.799 205.642 161.362 205.642 160.823C205.642 160.284 205.206 159.848 204.667 159.848C204.128 159.848 203.691 160.284 203.691 160.823C203.691 161.362 204.128 161.799 204.667 161.799Z" fill="#EF4824"/>
<path id="Ellipse 1132_13" d="M73.0263 161.799C73.5651 161.799 74.0019 161.362 74.0019 160.823C74.0019 160.284 73.5651 159.848 73.0263 159.848C72.4875 159.848 72.0508 160.284 72.0508 160.823C72.0508 161.362 72.4875 161.799 73.0263 161.799Z" fill="#EF4824"/>
<path id="Ellipse 753_13" d="M216.421 161.799C216.96 161.799 217.396 161.362 217.396 160.823C217.396 160.284 216.96 159.848 216.421 159.848C215.882 159.848 215.445 160.284 215.445 160.823C215.445 161.362 215.882 161.799 216.421 161.799Z" fill="#EF4824"/>
<path id="Ellipse 1133_13" d="M85.5615 161.799C86.1003 161.799 86.537 161.362 86.537 160.823C86.537 160.284 86.1003 159.848 85.5615 159.848C85.0227 159.848 84.5859 160.284 84.5859 160.823C84.5859 161.362 85.0227 161.799 85.5615 161.799Z" fill="#EF4824"/>
</g>
<g id="Group 867_14">
<path id="Ellipse 744_14" d="M97.3154 175.123C97.8542 175.123 98.2909 174.686 98.2909 174.147C98.2909 173.609 97.8542 173.172 97.3154 173.172C96.7766 173.172 96.3398 173.609 96.3398 174.147C96.3398 174.686 96.7766 175.123 97.3154 175.123Z" fill="#EF4824"/>
<path id="Ellipse 745_14" d="M109.069 175.123C109.608 175.123 110.045 174.686 110.045 174.147C110.045 173.609 109.608 173.172 109.069 173.172C108.531 173.172 108.094 173.609 108.094 174.147C108.094 174.686 108.531 175.123 109.069 175.123Z" fill="#EF4824"/>
<path id="Ellipse 746_14" d="M120.823 175.123C121.362 175.123 121.799 174.686 121.799 174.147C121.799 173.609 121.362 173.172 120.823 173.172C120.284 173.172 119.848 173.609 119.848 174.147C119.848 174.686 120.284 175.123 120.823 175.123Z" fill="#EF4824"/>
<path id="Ellipse 747_14" d="M132.577 175.123C133.116 175.123 133.553 174.686 133.553 174.147C133.553 173.609 133.116 173.172 132.577 173.172C132.038 173.172 131.602 173.609 131.602 174.147C131.602 174.686 132.038 175.123 132.577 175.123Z" fill="#EF4824"/>
<path id="Ellipse 1127_14" d="M1.72163 175.123C2.26041 175.123 2.69717 174.686 2.69717 174.147C2.69717 173.609 2.26041 173.172 1.72163 173.172C1.18286 173.172 0.746094 173.609 0.746094 174.147C0.746094 174.686 1.18286 175.123 1.72163 175.123Z" fill="#EF4824"/>
<path id="Path 6105_14" d="M146.088 174.147C146.088 174.34 146.031 174.529 145.923 174.689C145.816 174.85 145.664 174.975 145.486 175.049C145.307 175.123 145.111 175.142 144.922 175.104C144.733 175.067 144.559 174.974 144.422 174.837C144.286 174.701 144.193 174.527 144.155 174.338C144.118 174.148 144.137 173.952 144.211 173.774C144.285 173.596 144.41 173.443 144.57 173.336C144.731 173.229 144.919 173.172 145.112 173.172C145.371 173.172 145.619 173.275 145.802 173.458C145.985 173.641 146.088 173.889 146.088 174.147Z" fill="#EF4824"/>
<path id="Path 19272_14" d="M14.4511 174.147C14.4511 174.34 14.3939 174.529 14.2867 174.689C14.1795 174.85 14.0271 174.975 13.8489 175.049C13.6706 175.123 13.4745 175.142 13.2852 175.104C13.096 175.067 12.9222 174.974 12.7857 174.837C12.6493 174.701 12.5564 174.527 12.5187 174.338C12.4811 174.148 12.5004 173.952 12.5743 173.774C12.6481 173.596 12.7731 173.443 12.9336 173.336C13.094 173.229 13.2826 173.172 13.4755 173.172C13.7343 173.172 13.9824 173.275 14.1653 173.458C14.3483 173.641 14.4511 173.889 14.4511 174.147Z" fill="#EF4824"/>
<path id="Ellipse 748_14" d="M156.866 175.123C157.405 175.123 157.842 174.686 157.842 174.147C157.842 173.609 157.405 173.172 156.866 173.172C156.327 173.172 155.891 173.609 155.891 174.147C155.891 174.686 156.327 175.123 156.866 175.123Z" fill="#EF4824"/>
<path id="Ellipse 1128_14" d="M25.2294 175.123C25.7682 175.123 26.205 174.686 26.205 174.147C26.205 173.609 25.7682 173.172 25.2294 173.172C24.6907 173.172 24.2539 173.609 24.2539 174.147C24.2539 174.686 24.6907 175.123 25.2294 175.123Z" fill="#EF4824"/>
<path id="Ellipse 749_14" d="M168.62 175.123C169.159 175.123 169.596 174.686 169.596 174.147C169.596 173.609 169.159 173.172 168.62 173.172C168.081 173.172 167.645 173.609 167.645 174.147C167.645 174.686 168.081 175.123 168.62 175.123Z" fill="#EF4824"/>
<path id="Ellipse 1129_14" d="M37.7685 175.123C38.3073 175.123 38.744 174.686 38.744 174.147C38.744 173.609 38.3073 173.172 37.7685 173.172C37.2297 173.172 36.793 173.609 36.793 174.147C36.793 174.686 37.2297 175.123 37.7685 175.123Z" fill="#EF4824"/>
<path id="Ellipse 750_14" d="M180.374 175.123C180.913 175.123 181.35 174.686 181.35 174.147C181.35 173.609 180.913 173.172 180.374 173.172C179.835 173.172 179.398 173.609 179.398 174.147C179.398 174.686 179.835 175.123 180.374 175.123Z" fill="#EF4824"/>
<path id="Ellipse 1130_14" d="M49.5185 175.123C50.0573 175.123 50.494 174.686 50.494 174.147C50.494 173.609 50.0573 173.172 49.5185 173.172C48.9797 173.172 48.543 173.609 48.543 174.147C48.543 174.686 48.9797 175.123 49.5185 175.123Z" fill="#EF4824"/>
<path id="Ellipse 751_14" d="M192.913 175.123C193.452 175.123 193.889 174.686 193.889 174.147C193.889 173.609 193.452 173.172 192.913 173.172C192.374 173.172 191.938 173.609 191.938 174.147C191.938 174.686 192.374 175.123 192.913 175.123Z" fill="#EF4824"/>
<path id="Ellipse 1131_14" d="M61.2724 175.123C61.8112 175.123 62.248 174.686 62.248 174.147C62.248 173.609 61.8112 173.172 61.2724 173.172C60.7336 173.172 60.2969 173.609 60.2969 174.147C60.2969 174.686 60.7336 175.123 61.2724 175.123Z" fill="#EF4824"/>
<path id="Ellipse 752_14" d="M204.667 175.123C205.206 175.123 205.642 174.686 205.642 174.147C205.642 173.609 205.206 173.172 204.667 173.172C204.128 173.172 203.691 173.609 203.691 174.147C203.691 174.686 204.128 175.123 204.667 175.123Z" fill="#EF4824"/>
<path id="Ellipse 1132_14" d="M73.0263 175.123C73.5651 175.123 74.0019 174.686 74.0019 174.147C74.0019 173.609 73.5651 173.172 73.0263 173.172C72.4875 173.172 72.0508 173.609 72.0508 174.147C72.0508 174.686 72.4875 175.123 73.0263 175.123Z" fill="#EF4824"/>
<path id="Ellipse 753_14" d="M216.421 175.123C216.96 175.123 217.396 174.686 217.396 174.147C217.396 173.609 216.96 173.172 216.421 173.172C215.882 173.172 215.445 173.609 215.445 174.147C215.445 174.686 215.882 175.123 216.421 175.123Z" fill="#EF4824"/>
<path id="Ellipse 1133_14" d="M85.5615 175.123C86.1003 175.123 86.537 174.686 86.537 174.147C86.537 173.609 86.1003 173.172 85.5615 173.172C85.0227 173.172 84.5859 173.609 84.5859 174.147C84.5859 174.686 85.0227 175.123 85.5615 175.123Z" fill="#EF4824"/>
</g>
<g id="Group 867_15">
<path id="Ellipse 744_15" d="M97.3154 188.443C97.8542 188.443 98.2909 188.007 98.2909 187.468C98.2909 186.929 97.8542 186.492 97.3154 186.492C96.7766 186.492 96.3398 186.929 96.3398 187.468C96.3398 188.007 96.7766 188.443 97.3154 188.443Z" fill="#EF4824"/>
<path id="Ellipse 745_15" d="M109.069 188.443C109.608 188.443 110.045 188.007 110.045 187.468C110.045 186.929 109.608 186.492 109.069 186.492C108.531 186.492 108.094 186.929 108.094 187.468C108.094 188.007 108.531 188.443 109.069 188.443Z" fill="#EF4824"/>
<path id="Ellipse 746_15" d="M120.823 188.443C121.362 188.443 121.799 188.007 121.799 187.468C121.799 186.929 121.362 186.492 120.823 186.492C120.284 186.492 119.848 186.929 119.848 187.468C119.848 188.007 120.284 188.443 120.823 188.443Z" fill="#EF4824"/>
<path id="Ellipse 747_15" d="M132.577 188.443C133.116 188.443 133.553 188.007 133.553 187.468C133.553 186.929 133.116 186.492 132.577 186.492C132.038 186.492 131.602 186.929 131.602 187.468C131.602 188.007 132.038 188.443 132.577 188.443Z" fill="#EF4824"/>
<path id="Ellipse 1127_15" d="M1.72163 188.443C2.26041 188.443 2.69717 188.007 2.69717 187.468C2.69717 186.929 2.26041 186.492 1.72163 186.492C1.18286 186.492 0.746094 186.929 0.746094 187.468C0.746094 188.007 1.18286 188.443 1.72163 188.443Z" fill="#EF4824"/>
<path id="Path 6105_15" d="M146.088 187.468C146.088 187.661 146.031 187.849 145.923 188.01C145.816 188.17 145.664 188.295 145.486 188.369C145.307 188.443 145.111 188.462 144.922 188.425C144.733 188.387 144.559 188.294 144.422 188.158C144.286 188.021 144.193 187.847 144.155 187.658C144.118 187.469 144.137 187.273 144.211 187.094C144.285 186.916 144.41 186.764 144.57 186.657C144.731 186.549 144.919 186.492 145.112 186.492C145.371 186.492 145.619 186.595 145.802 186.778C145.985 186.961 146.088 187.209 146.088 187.468Z" fill="#EF4824"/>
<path id="Path 19272_15" d="M14.4511 187.468C14.4511 187.661 14.3939 187.849 14.2867 188.01C14.1795 188.17 14.0271 188.295 13.8489 188.369C13.6706 188.443 13.4745 188.462 13.2852 188.425C13.096 188.387 12.9222 188.294 12.7857 188.158C12.6493 188.021 12.5564 187.847 12.5187 187.658C12.4811 187.469 12.5004 187.273 12.5743 187.094C12.6481 186.916 12.7731 186.764 12.9336 186.657C13.094 186.549 13.2826 186.492 13.4755 186.492C13.7343 186.492 13.9824 186.595 14.1653 186.778C14.3483 186.961 14.4511 187.209 14.4511 187.468Z" fill="#EF4824"/>
<path id="Ellipse 748_15" d="M156.866 188.443C157.405 188.443 157.842 188.007 157.842 187.468C157.842 186.929 157.405 186.492 156.866 186.492C156.327 186.492 155.891 186.929 155.891 187.468C155.891 188.007 156.327 188.443 156.866 188.443Z" fill="#EF4824"/>
<path id="Ellipse 1128_15" d="M25.2294 188.443C25.7682 188.443 26.205 188.007 26.205 187.468C26.205 186.929 25.7682 186.492 25.2294 186.492C24.6907 186.492 24.2539 186.929 24.2539 187.468C24.2539 188.007 24.6907 188.443 25.2294 188.443Z" fill="#EF4824"/>
<path id="Ellipse 749_15" d="M168.62 188.443C169.159 188.443 169.596 188.007 169.596 187.468C169.596 186.929 169.159 186.492 168.62 186.492C168.081 186.492 167.645 186.929 167.645 187.468C167.645 188.007 168.081 188.443 168.62 188.443Z" fill="#EF4824"/>
<path id="Ellipse 1129_15" d="M37.7685 188.443C38.3073 188.443 38.744 188.007 38.744 187.468C38.744 186.929 38.3073 186.492 37.7685 186.492C37.2297 186.492 36.793 186.929 36.793 187.468C36.793 188.007 37.2297 188.443 37.7685 188.443Z" fill="#EF4824"/>
<path id="Ellipse 750_15" d="M180.374 188.443C180.913 188.443 181.35 188.007 181.35 187.468C181.35 186.929 180.913 186.492 180.374 186.492C179.835 186.492 179.398 186.929 179.398 187.468C179.398 188.007 179.835 188.443 180.374 188.443Z" fill="#EF4824"/>
<path id="Ellipse 1130_15" d="M49.5185 188.443C50.0573 188.443 50.494 188.007 50.494 187.468C50.494 186.929 50.0573 186.492 49.5185 186.492C48.9797 186.492 48.543 186.929 48.543 187.468C48.543 188.007 48.9797 188.443 49.5185 188.443Z" fill="#EF4824"/>
<path id="Ellipse 751_15" d="M192.913 188.443C193.452 188.443 193.889 188.007 193.889 187.468C193.889 186.929 193.452 186.492 192.913 186.492C192.374 186.492 191.938 186.929 191.938 187.468C191.938 188.007 192.374 188.443 192.913 188.443Z" fill="#EF4824"/>
<path id="Ellipse 1131_15" d="M61.2724 188.443C61.8112 188.443 62.248 188.007 62.248 187.468C62.248 186.929 61.8112 186.492 61.2724 186.492C60.7336 186.492 60.2969 186.929 60.2969 187.468C60.2969 188.007 60.7336 188.443 61.2724 188.443Z" fill="#EF4824"/>
<path id="Ellipse 752_15" d="M204.667 188.443C205.206 188.443 205.642 188.007 205.642 187.468C205.642 186.929 205.206 186.492 204.667 186.492C204.128 186.492 203.691 186.929 203.691 187.468C203.691 188.007 204.128 188.443 204.667 188.443Z" fill="#EF4824"/>
<path id="Ellipse 1132_15" d="M73.0263 188.443C73.5651 188.443 74.0019 188.007 74.0019 187.468C74.0019 186.929 73.5651 186.492 73.0263 186.492C72.4875 186.492 72.0508 186.929 72.0508 187.468C72.0508 188.007 72.4875 188.443 73.0263 188.443Z" fill="#EF4824"/>
<path id="Ellipse 753_15" d="M216.421 188.443C216.96 188.443 217.396 188.007 217.396 187.468C217.396 186.929 216.96 186.492 216.421 186.492C215.882 186.492 215.445 186.929 215.445 187.468C215.445 188.007 215.882 188.443 216.421 188.443Z" fill="#EF4824"/>
<path id="Ellipse 1133_15" d="M85.5615 188.443C86.1003 188.443 86.537 188.007 86.537 187.468C86.537 186.929 86.1003 186.492 85.5615 186.492C85.0227 186.492 84.5859 186.929 84.5859 187.468C84.5859 188.007 85.0227 188.443 85.5615 188.443Z" fill="#EF4824"/>
</g>
</g>
</svg>
